{
.appVersion = "895";
copyright = "Copyright 2016 Google Inc. All Rights Reserved.";
customParameters = (
{
name = description;
value = "Data unhinted. Designed by Monotype design team.";
},
{
name = license;
value = "This Font Software is licensed under the SIL Open Font License, Version 1.1. This Font Software is distributed on an \"AS IS\" BASIS, WITHOUT WARRANTIES OR CONDITIONS OF ANY KIND, either express or implied. See the SIL Open Font License for the specific language, permissions and limitations governing your use of this Font Software.";
},
{
name = licenseURL;
value = "http://scripts.sil.org/OFL";
},
{
name = vendorID;
value = GOOG;
},
{
name = panose;
value = (
2,
11,
5,
2,
4,
5,
4,
2,
2,
4
);
},
{
name = unicodeRanges;
value = (
113
);
},
{
name = codePageRanges;
value = (
1252
);
},
{
name = glyphOrder;
value = (
.notdef,
null,
uni000D,
space,
uni1BC0,
uni1BC1,
uni1BC2,
uni1BC3,
uni1BC4,
uni1BC5,
uni1BC6,
uni1BC7,
uni1BC8,
uni1BC9,
uni1BCA,
uni1BCB,
uni1BCC,
uni1BCD,
uni1BCE,
uni1BCF,
uni1BD0,
uni1BD1,
uni1BD2,
uni1BD3,
uni1BD4,
uni1BD5,
uni1BD6,
uni1BD7,
uni1BD8,
uni1BD9,
uni1BDA,
uni1BDB,
uni1BDC,
uni1BDD,
uni1BDE,
uni1BDF,
uni1BE0,
uni1BE1,
uni1BE2,
uni1BE3,
uni1BE4,
uni1BE5,
uni1BE6,
uni1BE7,
uni1BE8,
uni1BE9,
uni1BEA,
uni1BEB,
uni1BEC,
uni1BED,
uni1BEE,
uni1BEF,
uni1BF0,
uni1BF1,
uni1BF2,
uni1BF3,
uni1BFC,
uni1BFD,
uni1BFE,
uni1BFF,
batak_null
);
}
);
date = "2016-11-10 14:11:12 +0000";
designer = "Monotype Design Team";
designerURL = "http://www.monotype.com/studio";
familyName = "Noto Sans Batak";
features = (
{

glyphs = (
{
glyphname = .notdef;
lastChange = "2016-11-10 14:10:50 +0000";
layers = (
{
layerId = "1F0B2016-46FD-49D8-B97E-96273C297819";
paths = (
{
closed = 1;
nodes = (
"897 0 LINE",
"897 1638 LINE",
"129 1638 LINE",
"129 0 LINE"
);
},
{
closed = 1;
nodes = (
"256 1511 LINE",
"768 1511 LINE",
"768 129 LINE",
"256 129 LINE"
);
}
);
width = 1024;
}
);
note = .notdef;
},
{
glyphname = uni1BC0;
lastChange = "2016-11-10 14:10:43 +0000";
layers = (
{
layerId = "1F0B2016-46FD-49D8-B97E-96273C297819";
paths = (
{
closed = 1;
nodes = (
"1380 -31 OFFCURVE",
"1471 -13 OFFCURVE",
"1630 24 CURVE SMOOTH",
"1742 49 OFFCURVE",
"1965 78 OFFCURVE",
"2197 94 CURVE",
"2158 649 OFFCURVE",
"1996 875 OFFCURVE",
"1683 875 CURVE SMOOTH",
"1591 875 OFFCURVE",
"1516 846 OFFCURVE",
"1434 790 CURVE SMOOTH",
"1393 762 OFFCURVE",
"1330 710 OFFCURVE",
"1247 634 CURVE SMOOTH",
"1000 411 LINE SMOOTH",
"860 284 OFFCURVE",
"738 220 OFFCURVE",
"633 220 CURVE SMOOTH",
"562 220 OFFCURVE",
"501 256 OFFCURVE",
"429 328 CURVE SMOOTH",
"393 363 OFFCURVE",
"341 425 OFFCURVE",
"274 512 CURVE SMOOTH",
"256 534 OFFCURVE",
"237 545 OFFCURVE",
"218 545 CURVE SMOOTH",
"166 545 OFFCURVE",
"110 499 OFFCURVE",
"110 450 CURVE SMOOTH",
"110 430 OFFCURVE",
"116 412 OFFCURVE",
"127 397 CURVE SMOOTH",
"210 290 OFFCURVE",
"278 202 OFFCURVE",
"355 139 CURVE SMOOTH",
"431 76 OFFCURVE",
"519 40 OFFCURVE",
"639 40 CURVE SMOOTH",
"793 40 OFFCURVE",
"946 108 OFFCURVE",
"1098 245 CURVE SMOOTH",
"1329 450 LINE",
"1404 519 LINE SMOOTH",
"1527 636 OFFCURVE",
"1620 695 OFFCURVE",
"1683 695 CURVE SMOOTH",
"1838 695 OFFCURVE",
"1930 586 OFFCURVE",
"1989 255 CURVE",
"1792 246 OFFCURVE",
"1447 189 OFFCURVE",
"1338 150 CURVE SMOOTH",
"1295 134 OFFCURVE",
"1273 107 OFFCURVE",
"1273 69 CURVE SMOOTH",
"1273 16 OFFCURVE",
"1309 -31 OFFCURVE",
"1357 -31 CURVE SMOOTH"
);
}
);
width = 2307;
}
);
note = uni1BC0;
unicode = 1BC0;
},
{
glyphname = uni1BC1;
lastChange = "2016-11-10 14:10:43 +0000";
layers = (
{
layerId = "1F0B2016-46FD-49D8-B97E-96273C297819";
paths = (
{
closed = 1;
nodes = (
"793 40 OFFCURVE",
"946 108 OFFCURVE",
"1098 245 CURVE SMOOTH",
"1329 450 LINE",
"1404 519 LINE SMOOTH",
"1527 636 OFFCURVE",
"1620 695 OFFCURVE",
"1683 695 CURVE SMOOTH",
"1820 695 OFFCURVE",
"1910 605 OFFCURVE",
"1969 354 CURVE SMOOTH",
"1984 297 OFFCURVE",
"2012 283 OFFCURVE",
"2072 283 CURVE SMOOTH",
"2127 283 OFFCURVE",
"2163 320 OFFCURVE",
"2163 367 CURVE",
"2162 379 LINE",
"2093 722 OFFCURVE",
"1935 875 OFFCURVE",
"1683 875 CURVE SMOOTH",
"1591 875 OFFCURVE",
"1516 846 OFFCURVE",
"1434 790 CURVE SMOOTH",
"1393 762 OFFCURVE",
"1330 710 OFFCURVE",
"1247 634 CURVE SMOOTH",
"1000 411 LINE SMOOTH",
"860 284 OFFCURVE",
"738 220 OFFCURVE",
"633 220 CURVE SMOOTH",
"562 220 OFFCURVE",
"501 256 OFFCURVE",
"429 328 CURVE SMOOTH",
"393 363 OFFCURVE",
"341 425 OFFCURVE",
"274 512 CURVE SMOOTH",
"256 534 OFFCURVE",
"237 545 OFFCURVE",
"218 545 CURVE SMOOTH",
"166 545 OFFCURVE",
"110 499 OFFCURVE",
"110 450 CURVE SMOOTH",
"110 430 OFFCURVE",
"116 412 OFFCURVE",
"127 397 CURVE SMOOTH",
"210 290 OFFCURVE",
"278 202 OFFCURVE",
"355 139 CURVE SMOOTH",
"431 76 OFFCURVE",
"519 40 OFFCURVE",
"639 40 CURVE SMOOTH"
);
},
{
closed = 1;
nodes = (
"1768 -5 LINE SMOOTH",
"1817 -2 OFFCURVE",
"1864 0 OFFCURVE",
"1909 0 CURVE SMOOTH",
"1948 0 OFFCURVE",
"1993 -2 OFFCURVE",
"2043 -5 CURVE SMOOTH",
"2149 -11 LINE",
"2197 -11 OFFCURVE",
"2233 30 OFFCURVE",
"2233 78 CURVE SMOOTH",
"2233 114 OFFCURVE",
"2209 141 OFFCURVE",
"2162 160 CURVE",
"2137 169 OFFCURVE",
"2021 180 OFFCURVE",
"1909 180 CURVE SMOOTH",
"1766 180 OFFCURVE",
"1676 171 OFFCURVE",
"1639 154 CURVE SMOOTH",
"1602 136 OFFCURVE",
"1583 111 OFFCURVE",
"1583 78 CURVE SMOOTH",
"1583 30 OFFCURVE",
"1619 -11 OFFCURVE",
"1667 -11 CURVE"
);
}
);
width = 2343;
}
);
note = uni1BC1;
unicode = 1BC1;
},
{
glyphname = uni1BC2;
lastChange = "2016-11-10 14:10:43 +0000";
layers = (
{
layerId = "1F0B2016-46FD-49D8-B97E-96273C297819";
paths = (
{
closed = 1;
nodes = (
"569 -30 OFFCURVE",
"584 -24 OFFCURVE",
"597 -11 CURVE SMOOTH",
"610 2 OFFCURVE",
"632 31 OFFCURVE",
"663 77 CURVE SMOOTH",
"871 389 OFFCURVE",
"1004 530 OFFCURVE",
"1148 637 CURVE SMOOTH",
"1292 744 OFFCURVE",
"1440 800 OFFCURVE",
"1592 800 CURVE SMOOTH",
"1723 800 OFFCURVE",
"1805 759 OFFCURVE",
"1805 687 CURVE SMOOTH",
"1805 597 OFFCURVE",
"1735 478 OFFCURVE",
"1595 330 CURVE SMOOTH",
"1502 233 OFFCURVE",
"1444 168 OFFCURVE",
"1420 136 CURVE SMOOTH",
"1396 104 OFFCURVE",
"1384 78 OFFCURVE",
"1384 58 CURVE SMOOTH",
"1384 13 OFFCURVE",
"1436 -30 OFFCURVE",
"1487 -30 CURVE SMOOTH",
"1516 -30 OFFCURVE",
"1538 -20 OFFCURVE",
"1551 1 CURVE SMOOTH",
"1600 77 OFFCURVE",
"1667 149 OFFCURVE",
"1734 224 CURVE SMOOTH",
"1815 315 OFFCURVE",
"1871 384 OFFCURVE",
"1902 431 CURVE SMOOTH",
"1962 523 OFFCURVE",
"1999 617 OFFCURVE",
"1999 717 CURVE SMOOTH",
"1999 882 OFFCURVE",
"1852 980 OFFCURVE",
"1620 980 CURVE SMOOTH",
"1452 980 OFFCURVE",
"1295 936 OFFCURVE",
"1148 848 CURVE",
"1013 932 OFFCURVE",
"846 980 OFFCURVE",
"685 980 CURVE SMOOTH",
"488 980 OFFCURVE",
"308 925 OFFCURVE",
"146 814 CURVE",
"122 796 OFFCURVE",
"110 773 OFFCURVE",
"110 745 CURVE SMOOTH",
"110 704 OFFCURVE",
"147 660 OFFCURVE",
"184 660 CURVE SMOOTH",
"193 660 OFFCURVE",
"202 663 OFFCURVE",
"213 668 CURVE",
"426 777 OFFCURVE",
"514 800 OFFCURVE",
"685 800 CURVE SMOOTH",
"822 800 OFFCURVE",
"882 786 OFFCURVE",
"989 731 CURVE",
"905 679 OFFCURVE",
"686 435 OFFCURVE",
"547 244 CURVE SMOOTH",
"477 148 OFFCURVE",
"442 87 OFFCURVE",
"442 61 CURVE SMOOTH",
"442 17 OFFCURVE",
"501 -30 OFFCURVE",
"553 -30 CURVE SMOOTH"
);
}
);
width = 2129;
}
);
note = uni1BC2;
unicode = 1BC2;
},
{
glyphname = uni1BC3;
lastChange = "2016-11-10 14:10:43 +0000";
layers = (
{
layerId = "1F0B2016-46FD-49D8-B97E-96273C297819";
paths = (
{
closed = 1;
nodes = (
"199 524 OFFCURVE",
"214 528 OFFCURVE",
"235 536 CURVE SMOOTH",
"516 643 OFFCURVE",
"758 695 OFFCURVE",
"1079 695 CURVE SMOOTH",
"1416 695 OFFCURVE",
"1690 658 OFFCURVE",
"1899 584 CURVE SMOOTH",
"1915 578 LINE",
"1943 566 OFFCURVE",
"1962 560 OFFCURVE",
"1971 560 CURVE SMOOTH",
"2016 560 OFFCURVE",
"2052 603 OFFCURVE",
"2052 656 CURVE SMOOTH",
"2052 691 OFFCURVE",
"2042 714 OFFCURVE",
"2021 725 CURVE SMOOTH",
"1853 820 OFFCURVE",
"1484 875 OFFCURVE",
"1079 875 CURVE SMOOTH",
"772 875 OFFCURVE",
"395 804 OFFCURVE",
"148 685 CURVE SMOOTH",
"123 673 OFFCURVE",
"110 650 OFFCURVE",
"110 616 CURVE SMOOTH",
"110 567 OFFCURVE",
"142 524 OFFCURVE",
"189 524 CURVE SMOOTH"
);
},
{
closed = 1;
nodes = (
"657 -11 OFFCURVE",
"683 -9 OFFCURVE",
"714 -5 CURVE SMOOTH",
"745 -2 OFFCURVE",
"783 0 OFFCURVE",
"829 0 CURVE SMOOTH",
"868 0 OFFCURVE",
"904 -2 OFFCURVE",
"938 -5 CURVE SMOOTH",
"972 -9 OFFCURVE",
"999 -11 OFFCURVE",
"1019 -11 CURVE SMOOTH",
"1067 -11 OFFCURVE",
"1103 30 OFFCURVE",
"1103 78 CURVE SMOOTH",
"1103 111 OFFCURVE",
"1085 136 OFFCURVE",
"1048 154 CURVE SMOOTH",
"1011 171 OFFCURVE",
"938 180 OFFCURVE",
"829 180 CURVE SMOOTH",
"719 180 OFFCURVE",
"646 171 OFFCURVE",
"609 154 CURVE SMOOTH",
"572 136 OFFCURVE",
"553 111 OFFCURVE",
"553 78 CURVE SMOOTH",
"553 30 OFFCURVE",
"589 -11 OFFCURVE",
"637 -11 CURVE SMOOTH"
);
},
{
closed = 1;
nodes = (
"1577 -11 OFFCURVE",
"1603 -9 OFFCURVE",
"1634 -5 CURVE SMOOTH",
"1665 -2 OFFCURVE",
"1703 0 OFFCURVE",
"1749 0 CURVE SMOOTH",
"1788 0 OFFCURVE",
"1824 -2 OFFCURVE",
"1858 -5 CURVE SMOOTH",
"1892 -9 OFFCURVE",
"1919 -11 OFFCURVE",
"1939 -11 CURVE SMOOTH",
"1987 -11 OFFCURVE",
"2023 30 OFFCURVE",
"2023 78 CURVE SMOOTH",
"2023 111 OFFCURVE",
"2005 136 OFFCURVE",
"1968 154 CURVE SMOOTH",
"1931 171 OFFCURVE",
"1858 180 OFFCURVE",
"1749 180 CURVE SMOOTH",
"1639 180 OFFCURVE",
"1566 171 OFFCURVE",
"1529 154 CURVE SMOOTH",
"1492 136 OFFCURVE",
"1473 111 OFFCURVE",
"1473 78 CURVE SMOOTH",
"1473 30 OFFCURVE",
"1509 -11 OFFCURVE",
"1557 -11 CURVE SMOOTH"
);
}
);
width = 2162;
}
);
note = uni1BC3;
unicode = 1BC3;
},
{
glyphname = uni1BC4;
lastChange = "2016-11-10 14:10:43 +0000";
layers = (
{
layerId = "1F0B2016-46FD-49D8-B97E-96273C297819";
paths = (
{
closed = 1;
nodes = (
"1484 -30 OFFCURVE",
"1522 10 OFFCURVE",
"1538 39 CURVE SMOOTH",
"1610 160 OFFCURVE",
"1799 410 OFFCURVE",
"1955 579 CURVE SMOOTH",
"2016 644 OFFCURVE",
"2036 680 OFFCURVE",
"2036 732 CURVE SMOOTH",
"2036 763 OFFCURVE",
"2016 793 OFFCURVE",
"1975 822 CURVE SMOOTH",
"1934 850 OFFCURVE",
"1872 877 OFFCURVE",
"1787 903 CURVE SMOOTH",
"1617 955 OFFCURVE",
"1408 980 OFFCURVE",
"1079 980 CURVE SMOOTH",
"738 980 OFFCURVE",
"403 915 OFFCURVE",
"148 790 CURVE SMOOTH",
"123 778 OFFCURVE",
"110 755 OFFCURVE",
"110 721 CURVE SMOOTH",
"110 672 OFFCURVE",
"142 629 OFFCURVE",
"189 629 CURVE SMOOTH",
"199 629 OFFCURVE",
"214 633 OFFCURVE",
"235 641 CURVE SMOOTH",
"339 680 OFFCURVE",
"435 712 OFFCURVE",
"522 735 CURVE SMOOTH",
"697 781 OFFCURVE",
"834 800 OFFCURVE",
"1079 800 CURVE SMOOTH",
"1438 800 OFFCURVE",
"1640 769 OFFCURVE",
"1832 698 CURVE",
"1772 642 OFFCURVE",
"1707 572 OFFCURVE",
"1638 488 CURVE SMOOTH",
"1499 319 OFFCURVE",
"1355 109 OFFCURVE",
"1355 65 CURVE SMOOTH",
"1355 18 OFFCURVE",
"1410 -30 OFFCURVE",
"1457 -30 CURVE SMOOTH"
);
},
{
closed = 1;
nodes = (
"666 -30 OFFCURVE",
"681 -15 OFFCURVE",
"697 10 CURVE SMOOTH",
"794 162 OFFCURVE",
"953 362 OFFCURVE",
"1065 477 CURVE SMOOTH",
"1078 490 OFFCURVE",
"1085 509 OFFCURVE",
"1085 533 CURVE SMOOTH",
"1085 580 OFFCURVE",
"1040 618 OFFCURVE",
"991 618 CURVE",
"970 617 OFFCURVE",
"949 607 OFFCURVE",
"928 588 CURVE",
"884 551 OFFCURVE",
"763 413 OFFCURVE",
"689 317 CURVE SMOOTH",
"615 221 OFFCURVE",
"564 147 OFFCURVE",
"544 109 CURVE",
"533 90 OFFCURVE",
"528 78 OFFCURVE",
"527 73 CURVE SMOOTH",
"526 68 OFFCURVE",
"525 63 OFFCURVE",
"525 57 CURVE SMOOTH",
"525 13 OFFCURVE",
"579 -30 OFFCURVE",
"631 -30 CURVE SMOOTH"
);
}
);
width = 2166;
}
);
note = uni1BC4;
unicode = 1BC4;
},
{
glyphname = uni1BC5;
lastChange = "2016-11-10 14:10:43 +0000";
layers = (
{
layerId = "1F0B2016-46FD-49D8-B97E-96273C297819";
paths = (
{
closed = 1;
nodes = (
"608 -20 OFFCURVE",
"700 6 OFFCURVE",
"784 57 CURVE SMOOTH",
"1095 249 LINE",
"1356 87 LINE SMOOTH",
"1488 4 OFFCURVE",
"1576 -20 OFFCURVE",
"1673 -20 CURVE SMOOTH",
"1743 -20 OFFCURVE",
"1807 -2 OFFCURVE",
"1866 35 CURVE SMOOTH",
"1983 107 OFFCURVE",
"2051 242 OFFCURVE",
"2051 421 CURVE SMOOTH",
"2051 596 OFFCURVE",
"1989 721 OFFCURVE",
"1865 798 CURVE SMOOTH",
"1673 917 OFFCURVE",
"1405 980 OFFCURVE",
"1097 980 CURVE SMOOTH",
"904 980 OFFCURVE",
"734 958 OFFCURVE",
"587 914 CURVE SMOOTH",
"291 826 OFFCURVE",
"140 710 OFFCURVE",
"140 398 CURVE SMOOTH",
"140 316 OFFCURVE",
"157 244 OFFCURVE",
"190 181 CURVE SMOOTH",
"257 56 OFFCURVE",
"381 -20 OFFCURVE",
"508 -20 CURVE SMOOTH"
);
},
{
closed = 1;
nodes = (
"399 160 OFFCURVE",
"324 256 OFFCURVE",
"324 428 CURVE SMOOTH",
"324 529 OFFCURVE",
"369 606 OFFCURVE",
"458 658 CURVE SMOOTH",
"623 753 OFFCURVE",
"836 800 OFFCURVE",
"1096 800 CURVE SMOOTH",
"1348 800 OFFCURVE",
"1580 748 OFFCURVE",
"1740 655 CURVE SMOOTH",
"1816 611 OFFCURVE",
"1867 525 OFFCURVE",
"1867 428 CURVE SMOOTH",
"1867 261 OFFCURVE",
"1786 160 OFFCURVE",
"1666 160 CURVE SMOOTH",
"1614 160 OFFCURVE",
"1545 188 OFFCURVE",
"1459 244 CURVE SMOOTH",
"1232 390 LINE SMOOTH",
"1193 417 OFFCURVE",
"1147 431 OFFCURVE",
"1096 431 CURVE SMOOTH",
"1051 431 OFFCURVE",
"989 412 OFFCURVE",
"952 388 CURVE SMOOTH",
"669 206 LINE",
"608 175 OFFCURVE",
"560 160 OFFCURVE",
"526 160 CURVE SMOOTH"
);
}
);
width = 2191;
}
);
note = uni1BC5;
unicode = 1BC5;
},
{
glyphname = uni1BC6;
lastChange = "2016-11-10 14:10:43 +0000";
layers = (
{
layerId = "1F0B2016-46FD-49D8-B97E-96273C297819";
paths = (
{
closed = 1;
nodes = (
"1559 -20 OFFCURVE",
"1888 164 OFFCURVE",
"1888 480 CURVE SMOOTH",
"1888 583 OFFCURVE",
"1854 671 OFFCURVE",
"1787 745 CURVE SMOOTH",
"1651 893 OFFCURVE",
"1375 980 OFFCURVE",
"1014 980 CURVE SMOOTH",
"837 980 OFFCURVE",
"681 959 OFFCURVE",
"547 918 CURVE SMOOTH",
"278 834 OFFCURVE",
"140 681 OFFCURVE",
"140 480 CURVE SMOOTH",
"140 161 OFFCURVE",
"462 -20 OFFCURVE",
"1014 -20 CURVE SMOOTH"
);
},
{
closed = 1;
nodes = (
"589 160 OFFCURVE",
"334 273 OFFCURVE",
"334 480 CURVE SMOOTH",
"334 684 OFFCURVE",
"593 800 OFFCURVE",
"1014 800 CURVE SMOOTH",
"1434 800 OFFCURVE",
"1694 681 OFFCURVE",
"1694 480 CURVE SMOOTH",
"1694 275 OFFCURVE",
"1430 160 OFFCURVE",
"1014 160 CURVE SMOOTH"
);
}
);
width = 2028;
}
);
note = uni1BC6;
unicode = 1BC6;
},
{
glyphname = uni1BC7;
lastChange = "2016-11-10 14:10:43 +0000";
layers = (
{
layerId = "1F0B2016-46FD-49D8-B97E-96273C297819";
paths = (
{
closed = 1;
nodes = (
"207 642 OFFCURVE",
"229 645 OFFCURVE",
"262 651 CURVE SMOOTH",
"295 656 OFFCURVE",
"338 662 OFFCURVE",
"393 669 CURVE SMOOTH",
"501 681 OFFCURVE",
"656 695 OFFCURVE",
"861 695 CURVE SMOOTH",
"1127 695 OFFCURVE",
"1331 687 OFFCURVE",
"1472 671 CURVE SMOOTH",
"1526 666 LINE",
"1574 666 OFFCURVE",
"1610 707 OFFCURVE",
"1610 755 CURVE SMOOTH",
"1610 794 OFFCURVE",
"1590 832 OFFCURVE",
"1539 840 CURVE SMOOTH",
"1399 863 OFFCURVE",
"1173 875 OFFCURVE",
"861 875 CURVE SMOOTH",
"566 875 OFFCURVE",
"289 845 OFFCURVE",
"181 816 CURVE SMOOTH",
"132 804 OFFCURVE",
"110 770 OFFCURVE",
"110 731 CURVE SMOOTH",
"110 683 OFFCURVE",
"146 642 OFFCURVE",
"194 642 CURVE SMOOTH"
);
}
);
width = 1720;
}
);
note = uni1BC7;
unicode = 1BC7;
},
{
glyphname = uni1BC8;
lastChange = "2016-11-10 14:10:43 +0000";
layers = (
{
layerId = "1F0B2016-46FD-49D8-B97E-96273C297819";
paths = (
{
closed = 1;
nodes = (
"699 250 OFFCURVE",
"827 284 OFFCURVE",
"988 363 CURVE SMOOTH",
"1157 443 OFFCURVE",
"1261 475 OFFCURVE",
"1365 475 CURVE SMOOTH",
"1496 475 OFFCURVE",
"1581 418 OFFCURVE",
"1657 313 CURVE SMOOTH",
"1673 291 OFFCURVE",
"1692 280 OFFCURVE",
"1713 280 CURVE SMOOTH",
"1765 280 OFFCURVE",
"1821 326 OFFCURVE",
"1821 375 CURVE SMOOTH",
"1821 395 OFFCURVE",
"1815 413 OFFCURVE",
"1804 428 CURVE SMOOTH",
"1684 589 OFFCURVE",
"1539 655 OFFCURVE",
"1359 655 CURVE SMOOTH",
"1228 655 OFFCURVE",
"1098 618 OFFCURVE",
"943 543 CURVE SMOOTH",
"780 464 OFFCURVE",
"671 430 OFFCURVE",
"566 430 CURVE SMOOTH",
"435 430 OFFCURVE",
"350 487 OFFCURVE",
"274 592 CURVE SMOOTH",
"258 614 OFFCURVE",
"239 625 OFFCURVE",
"218 625 CURVE SMOOTH",
"166 625 OFFCURVE",
"110 579 OFFCURVE",
"110 530 CURVE SMOOTH",
"110 510 OFFCURVE",
"116 492 OFFCURVE",
"127 477 CURVE SMOOTH",
"247 316 OFFCURVE",
"392 250 OFFCURVE",
"572 250 CURVE SMOOTH"
);
}
);
width = 1931;
}
);
note = uni1BC8;
unicode = 1BC8;
},
{
glyphname = uni1BC9;
lastChange = "2016-11-10 14:10:43 +0000";
layers = (
{
layerId = "1F0B2016-46FD-49D8-B97E-96273C297819";
paths = (
{
closed = 1;
nodes = (
"1625 -20 OFFCURVE",
"1887 129 OFFCURVE",
"1887 378 CURVE SMOOTH",
"1887 630 OFFCURVE",
"1607 780 OFFCURVE",
"1182 780 CURVE SMOOTH",
"761 780 OFFCURVE",
"477 626 OFFCURVE",
"477 378 CURVE SMOOTH",
"477 130 OFFCURVE",
"735 -20 OFFCURVE",
"1182 -20 CURVE SMOOTH"
);
},
{
closed = 1;
nodes = (
"1022 160 OFFCURVE",
"896 179 OFFCURVE",
"806 217 CURVE SMOOTH",
"716 255 OFFCURVE",
"671 309 OFFCURVE",
"671 379 CURVE SMOOTH",
"671 448 OFFCURVE",
"716 503 OFFCURVE",
"805 542 CURVE SMOOTH",
"894 581 OFFCURVE",
"1021 600 OFFCURVE",
"1185 600 CURVE SMOOTH",
"1344 600 OFFCURVE",
"1469 581 OFFCURVE",
"1559 542 CURVE SMOOTH",
"1648 503 OFFCURVE",
"1693 448 OFFCURVE",
"1693 379 CURVE SMOOTH",
"1693 309 OFFCURVE",
"1649 255 OFFCURVE",
"1561 217 CURVE SMOOTH",
"1472 179 OFFCURVE",
"1347 160 OFFCURVE",
"1185 160 CURVE SMOOTH"
);
},
{
closed = 1;
nodes = (
"194 912 OFFCURVE",
"215 914 OFFCURVE",
"243 918 CURVE SMOOTH",
"390 939 OFFCURVE",
"573 950 OFFCURVE",
"791 950 CURVE SMOOTH",
"1023 950 OFFCURVE",
"1205 939 OFFCURVE",
"1336 918 CURVE SMOOTH",
"1361 914 OFFCURVE",
"1380 912 OFFCURVE",
"1393 912 CURVE SMOOTH",
"1438 912 OFFCURVE",
"1469 961 OFFCURVE",
"1469 1008 CURVE SMOOTH",
"1469 1039 OFFCURVE",
"1450 1073 OFFCURVE",
"1399 1084 CURVE SMOOTH",
"1274 1111 OFFCURVE",
"994 1130 OFFCURVE",
"791 1130 CURVE SMOOTH",
"556 1130 OFFCURVE",
"301 1110 OFFCURVE",
"164 1082 CURVE",
"132 1077 OFFCURVE",
"110 1040 OFFCURVE",
"110 1001 CURVE SMOOTH",
"110 950 OFFCURVE",
"145 912 OFFCURVE",
"180 912 CURVE SMOOTH"
);
}
);
width = 2027;
}
);
note = uni1BC9;
unicode = 1BC9;
},
{
glyphname = uni1BCA;
lastChange = "2016-11-10 14:10:43 +0000";
layers = (
{
layerId = "1F0B2016-46FD-49D8-B97E-96273C297819";
paths = (
{
closed = 1;
nodes = (
"1022 -20 OFFCURVE",
"1120 -10 OFFCURVE",
"1195 9 CURVE SMOOTH",
"1345 47 OFFCURVE",
"1416 123 OFFCURVE",
"1416 272 CURVE SMOOTH",
"1416 416 OFFCURVE",
"1300 555 OFFCURVE",
"1099 672 CURVE",
"1330 757 OFFCURVE",
"1557 800 OFFCURVE",
"1781 800 CURVE SMOOTH",
"1822 800 OFFCURVE",
"1847 836 OFFCURVE",
"1847 891 CURVE SMOOTH",
"1847 938 OFFCURVE",
"1826 980 OFFCURVE",
"1771 980 CURVE SMOOTH",
"1527 980 OFFCURVE",
"1199 902 OFFCURVE",
"916 769 CURVE",
"728 860 OFFCURVE",
"374 954 OFFCURVE",
"325 954 CURVE SMOOTH",
"285 954 OFFCURVE",
"250 914 OFFCURVE",
"250 863 CURVE SMOOTH",
"250 823 OFFCURVE",
"279 788 OFFCURVE",
"328 779 CURVE SMOOTH",
"475 750 OFFCURVE",
"609 714 OFFCURVE",
"728 669 CURVE",
"516 537 OFFCURVE",
"411 401 OFFCURVE",
"411 272 CURVE SMOOTH",
"411 156 OFFCURVE",
"450 91 OFFCURVE",
"526 48 CURVE SMOOTH",
"601 4 OFFCURVE",
"730 -20 OFFCURVE",
"903 -20 CURVE SMOOTH"
);
},
{
closed = 1;
nodes = (
"799 160 OFFCURVE",
"718 169 OFFCURVE",
"673 188 CURVE SMOOTH",
"628 207 OFFCURVE",
"605 235 OFFCURVE",
"605 272 CURVE SMOOTH",
"605 375 OFFCURVE",
"726 493 OFFCURVE",
"911 589 CURVE",
"1110 484 OFFCURVE",
"1222 371 OFFCURVE",
"1222 272 CURVE SMOOTH",
"1222 236 OFFCURVE",
"1196 208 OFFCURVE",
"1143 189 CURVE SMOOTH",
"1090 170 OFFCURVE",
"1014 160 OFFCURVE",
"915 160 CURVE SMOOTH"
);
},
{
closed = 1;
nodes = (
"217 1133 LINE",
"288 1146 OFFCURVE",
"530 1162 OFFCURVE",
"691 1162 CURVE SMOOTH",
"722 1162 OFFCURVE",
"867 1156 OFFCURVE",
"1128 1145 CURVE",
"1193 1138 LINE",
"1238 1138 OFFCURVE",
"1269 1187 OFFCURVE",
"1269 1234 CURVE SMOOTH",
"1269 1265 OFFCURVE",
"1250 1299 OFFCURVE",
"1199 1310 CURVE SMOOTH",
"1083 1331 OFFCURVE",
"914 1342 OFFCURVE",
"691 1342 CURVE SMOOTH",
"610 1342 OFFCURVE",
"426 1335 OFFCURVE",
"276 1317 CURVE SMOOTH",
"201 1308 OFFCURVE",
"158 1300 OFFCURVE",
"147 1294 CURVE SMOOTH",
"126 1282 OFFCURVE",
"110 1250 OFFCURVE",
"110 1219 CURVE SMOOTH",
"110 1168 OFFCURVE",
"145 1130 OFFCURVE",
"180 1130 CURVE"
);
}
);
width = 1957;
}
);
note = uni1BCA;
unicode = 1BCA;
},
{
glyphname = uni1BCB;
lastChange = "2016-11-10 14:10:43 +0000";
layers = (
{
layerId = "1F0B2016-46FD-49D8-B97E-96273C297819";
paths = (
{
closed = 1;
nodes = (
"720 -20 OFFCURVE",
"745 8 OFFCURVE",
"745 77 CURVE SMOOTH",
"745 132 OFFCURVE",
"703 160 OFFCURVE",
"620 160 CURVE SMOOTH",
"413 160 OFFCURVE",
"334 194 OFFCURVE",
"334 310 CURVE SMOOTH",
"334 395 OFFCURVE",
"364 475 OFFCURVE",
"424 552 CURVE SMOOTH",
"544 705 OFFCURVE",
"767 800 OFFCURVE",
"1024 800 CURVE SMOOTH",
"1151 800 OFFCURVE",
"1268 778 OFFCURVE",
"1374 734 CURVE SMOOTH",
"1586 645 OFFCURVE",
"1714 481 OFFCURVE",
"1714 310 CURVE SMOOTH",
"1714 271 OFFCURVE",
"1705 241 OFFCURVE",
"1687 220 CURVE SMOOTH",
"1651 179 OFFCURVE",
"1572 160 OFFCURVE",
"1428 160 CURVE SMOOTH",
"1345 160 OFFCURVE",
"1303 132 OFFCURVE",
"1303 77 CURVE SMOOTH",
"1303 8 OFFCURVE",
"1328 -20 OFFCURVE",
"1424 -20 CURVE SMOOTH",
"1780 -20 OFFCURVE",
"1908 71 OFFCURVE",
"1908 310 CURVE SMOOTH",
"1908 434 OFFCURVE",
"1871 548 OFFCURVE",
"1797 651 CURVE SMOOTH",
"1649 858 OFFCURVE",
"1367 980 OFFCURVE",
"1024 980 CURVE SMOOTH",
"857 980 OFFCURVE",
"706 951 OFFCURVE",
"571 893 CURVE SMOOTH",
"299 777 OFFCURVE",
"140 554 OFFCURVE",
"140 310 CURVE SMOOTH",
"140 67 OFFCURVE",
"275 -20 OFFCURVE",
"624 -20 CURVE SMOOTH"
);
}
);
width = 2048;
}
);
note = uni1BCB;
unicode = 1BCB;
},
{
glyphname = uni1BCC;
lastChange = "2016-11-10 14:10:43 +0000";
layers = (
{
layerId = "1F0B2016-46FD-49D8-B97E-96273C297819";
paths = (
{
closed = 1;
nodes = (
"199 524 OFFCURVE",
"214 528 OFFCURVE",
"235 536 CURVE SMOOTH",
"516 643 OFFCURVE",
"758 695 OFFCURVE",
"1079 695 CURVE SMOOTH",
"1416 695 OFFCURVE",
"1690 658 OFFCURVE",
"1899 584 CURVE SMOOTH",
"1915 578 LINE",
"1943 566 OFFCURVE",
"1962 560 OFFCURVE",
"1971 560 CURVE SMOOTH",
"2016 560 OFFCURVE",
"2052 603 OFFCURVE",
"2052 656 CURVE SMOOTH",
"2052 691 OFFCURVE",
"2042 714 OFFCURVE",
"2021 725 CURVE SMOOTH",
"1853 820 OFFCURVE",
"1484 875 OFFCURVE",
"1079 875 CURVE SMOOTH",
"772 875 OFFCURVE",
"395 804 OFFCURVE",
"148 685 CURVE SMOOTH",
"123 673 OFFCURVE",
"110 650 OFFCURVE",
"110 616 CURVE SMOOTH",
"110 567 OFFCURVE",
"142 524 OFFCURVE",
"189 524 CURVE SMOOTH"
);
},
{
closed = 1;
nodes = (
"263 -11 OFFCURVE",
"289 -9 OFFCURVE",
"320 -5 CURVE SMOOTH",
"351 -2 OFFCURVE",
"389 0 OFFCURVE",
"435 0 CURVE SMOOTH",
"474 0 OFFCURVE",
"510 -2 OFFCURVE",
"544 -5 CURVE SMOOTH",
"578 -9 OFFCURVE",
"605 -11 OFFCURVE",
"625 -11 CURVE SMOOTH",
"673 -11 OFFCURVE",
"709 30 OFFCURVE",
"709 78 CURVE SMOOTH",
"709 111 OFFCURVE",
"691 136 OFFCURVE",
"654 154 CURVE SMOOTH",
"617 171 OFFCURVE",
"544 180 OFFCURVE",
"435 180 CURVE SMOOTH",
"325 180 OFFCURVE",
"252 171 OFFCURVE",
"215 154 CURVE SMOOTH",
"178 136 OFFCURVE",
"159 111 OFFCURVE",
"159 78 CURVE SMOOTH",
"159 30 OFFCURVE",
"195 -11 OFFCURVE",
"243 -11 CURVE SMOOTH"
);
},
{
closed = 1;
nodes = (
"1597 -11 OFFCURVE",
"1623 -9 OFFCURVE",
"1654 -5 CURVE SMOOTH",
"1685 -2 OFFCURVE",
"1723 0 OFFCURVE",
"1769 0 CURVE SMOOTH",
"1808 0 OFFCURVE",
"1844 -2 OFFCURVE",
"1878 -5 CURVE SMOOTH",
"1912 -9 OFFCURVE",
"1939 -11 OFFCURVE",
"1959 -11 CURVE SMOOTH",
"2007 -11 OFFCURVE",
"2043 30 OFFCURVE",
"2043 78 CURVE SMOOTH",
"2043 111 OFFCURVE",
"2025 136 OFFCURVE",
"1988 154 CURVE SMOOTH",
"1951 171 OFFCURVE",
"1878 180 OFFCURVE",
"1769 180 CURVE SMOOTH",
"1659 180 OFFCURVE",
"1586 171 OFFCURVE",
"1549 154 CURVE SMOOTH",
"1512 136 OFFCURVE",
"1493 111 OFFCURVE",
"1493 78 CURVE SMOOTH",
"1493 30 OFFCURVE",
"1529 -11 OFFCURVE",
"1577 -11 CURVE SMOOTH"
);
}
);
width = 2162;
}
);
note = uni1BCC;
unicode = 1BCC;
},
{
glyphname = uni1BCD;
lastChange = "2016-11-10 14:10:43 +0000";
layers = (
{
layerId = "1F0B2016-46FD-49D8-B97E-96273C297819";
paths = (
{
closed = 1;
nodes = (
"1465 -30 OFFCURVE",
"1503 6 OFFCURVE",
"1503 47 CURVE",
"1501 67 LINE",
"1488 141 OFFCURVE",
"1457 203 OFFCURVE",
"1410 252 CURVE SMOOTH",
"1315 350 OFFCURVE",
"1157 389 OFFCURVE",
"908 420 CURVE SMOOTH",
"777 436 OFFCURVE",
"672 457 OFFCURVE",
"594 482 CURVE SMOOTH",
"438 532 OFFCURVE",
"343 632 OFFCURVE",
"319 785 CURVE",
"409 795 OFFCURVE",
"549 800 OFFCURVE",
"739 800 CURVE SMOOTH",
"858 800 OFFCURVE",
"1015 791 OFFCURVE",
"1055 787 CURVE",
"1010 749 LINE SMOOTH",
"987 730 OFFCURVE",
"976 708 OFFCURVE",
"976 683 CURVE SMOOTH",
"976 636 OFFCURVE",
"1015 595 OFFCURVE",
"1063 595 CURVE SMOOTH",
"1114 595 OFFCURVE",
"1145 635 OFFCURVE",
"1230 715 CURVE SMOOTH",
"1258 740 OFFCURVE",
"1294 778 OFFCURVE",
"1294 830 CURVE SMOOTH",
"1294 909 OFFCURVE",
"1236 949 OFFCURVE",
"1096 967 CURVE SMOOTH",
"1026 976 OFFCURVE",
"904 980 OFFCURVE",
"729 980 CURVE SMOOTH",
"566 980 OFFCURVE",
"397 973 OFFCURVE",
"221 958 CURVE",
"165 951 OFFCURVE",
"130 914 OFFCURVE",
"130 870 CURVE SMOOTH",
"130 705 OFFCURVE",
"173 588 OFFCURVE",
"242 504 CURVE SMOOTH",
"311 420 OFFCURVE",
"408 370 OFFCURVE",
"514 336 CURVE SMOOTH",
"620 302 OFFCURVE",
"737 284 OFFCURVE",
"847 267 CURVE SMOOTH",
"957 250 OFFCURVE",
"1061 234 OFFCURVE",
"1144 202 CURVE SMOOTH",
"1227 169 OFFCURVE",
"1286 121 OFFCURVE",
"1309 41 CURVE SMOOTH",
"1324 -14 OFFCURVE",
"1352 -30 OFFCURVE",
"1412 -30 CURVE SMOOTH"
);
}
);
width = 1613;
}
);
note = uni1BCD;
unicode = 1BCD;
},
{
glyphname = uni1BCE;
lastChange = "2016-11-10 14:10:43 +0000";
layers = (
{
layerId = "1F0B2016-46FD-49D8-B97E-96273C297819";
paths = (
{
closed = 1;
nodes = (
"1359 234 OFFCURVE",
"1382 244 OFFCURVE",
"1397 264 CURVE SMOOTH",
"1483 378 OFFCURVE",
"1600 488 OFFCURVE",
"1749 595 CURVE SMOOTH",
"1780 618 OFFCURVE",
"1797 640 OFFCURVE",
"1797 692 CURVE SMOOTH",
"1797 736 OFFCURVE",
"1766 771 OFFCURVE",
"1704 796 CURVE SMOOTH",
"1579 847 OFFCURVE",
"1313 875 OFFCURVE",
"953 875 CURVE SMOOTH",
"692 875 OFFCURVE",
"355 823 OFFCURVE",
"167 747 CURVE SMOOTH",
"127 731 OFFCURVE",
"110 695 OFFCURVE",
"110 668 CURVE SMOOTH",
"110 617 OFFCURVE",
"147 575 OFFCURVE",
"194 575 CURVE SMOOTH",
"211 575 OFFCURVE",
"244 583 OFFCURVE",
"294 600 CURVE SMOOTH",
"419 645 OFFCURVE",
"738 695 OFFCURVE",
"953 695 CURVE SMOOTH",
"1245 695 OFFCURVE",
"1442 680 OFFCURVE",
"1544 651 CURVE",
"1419 558 OFFCURVE",
"1326 473 OFFCURVE",
"1264 398 CURVE SMOOTH",
"1243 374 OFFCURVE",
"1233 349 OFFCURVE",
"1233 322 CURVE SMOOTH",
"1233 278 OFFCURVE",
"1275 234 OFFCURVE",
"1326 234 CURVE SMOOTH"
);
}
);
width = 1927;
}
);
note = uni1BCE;
unicode = 1BCE;
},
{
glyphname = uni1BCF;
lastChange = "2016-11-10 14:10:43 +0000";
layers = (
{
layerId = "1F0B2016-46FD-49D8-B97E-96273C297819";
paths = (
{
closed = 1;
nodes = (
"199 524 OFFCURVE",
"214 528 OFFCURVE",
"235 536 CURVE SMOOTH",
"516 643 OFFCURVE",
"758 695 OFFCURVE",
"1079 695 CURVE SMOOTH",
"1416 695 OFFCURVE",
"1690 658 OFFCURVE",
"1899 584 CURVE SMOOTH",
"1915 578 LINE",
"1943 566 OFFCURVE",
"1962 560 OFFCURVE",
"1971 560 CURVE SMOOTH",
"2016 560 OFFCURVE",
"2052 603 OFFCURVE",
"2052 656 CURVE SMOOTH",
"2052 691 OFFCURVE",
"2042 714 OFFCURVE",
"2021 725 CURVE SMOOTH",
"1853 820 OFFCURVE",
"1484 875 OFFCURVE",
"1079 875 CURVE SMOOTH",
"772 875 OFFCURVE",
"395 804 OFFCURVE",
"148 685 CURVE SMOOTH",
"123 673 OFFCURVE",
"110 650 OFFCURVE",
"110 616 CURVE SMOOTH",
"110 567 OFFCURVE",
"142 524 OFFCURVE",
"189 524 CURVE SMOOTH"
);
},
{
closed = 1;
nodes = (
"1577 -11 OFFCURVE",
"1603 -9 OFFCURVE",
"1634 -5 CURVE SMOOTH",
"1665 -2 OFFCURVE",
"1703 0 OFFCURVE",
"1749 0 CURVE SMOOTH",
"1788 0 OFFCURVE",
"1824 -2 OFFCURVE",
"1858 -5 CURVE SMOOTH",
"1892 -9 OFFCURVE",
"1919 -11 OFFCURVE",
"1939 -11 CURVE SMOOTH",
"1987 -11 OFFCURVE",
"2023 30 OFFCURVE",
"2023 78 CURVE SMOOTH",
"2023 111 OFFCURVE",
"2005 136 OFFCURVE",
"1968 154 CURVE SMOOTH",
"1931 171 OFFCURVE",
"1858 180 OFFCURVE",
"1749 180 CURVE SMOOTH",
"1639 180 OFFCURVE",
"1566 171 OFFCURVE",
"1529 154 CURVE SMOOTH",
"1492 136 OFFCURVE",
"1473 111 OFFCURVE",
"1473 78 CURVE SMOOTH",
"1473 30 OFFCURVE",
"1509 -11 OFFCURVE",
"1557 -11 CURVE SMOOTH"
);
}
);
width = 2162;
}
);
note = uni1BCF;
unicode = 1BCF;
},
{
glyphname = uni1BD0;
lastChange = "2016-11-10 14:10:43 +0000";
layers = (
{
layerId = "1F0B2016-46FD-49D8-B97E-96273C297819";
paths = (
{
closed = 1;
nodes = (
"230 518 OFFCURVE",
"258 526 OFFCURVE",
"301 543 CURVE SMOOTH",
"406 584 OFFCURVE",
"523 623 OFFCURVE",
"652 659 CURVE SMOOTH",
"911 730 OFFCURVE",
"1243 787 OFFCURVE",
"1432 807 CURVE SMOOTH",
"1473 812 OFFCURVE",
"1496 853 OFFCURVE",
"1496 890 CURVE SMOOTH",
"1496 942 OFFCURVE",
"1458 980 OFFCURVE",
"1411 980 CURVE SMOOTH",
"1336 980 OFFCURVE",
"1209 964 OFFCURVE",
"1030 931 CURVE SMOOTH",
"672 866 OFFCURVE",
"323 767 OFFCURVE",
"183 687 CURVE SMOOTH",
"148 666 OFFCURVE",
"130 640 OFFCURVE",
"130 609 CURVE SMOOTH",
"130 560 OFFCURVE",
"168 518 OFFCURVE",
"216 518 CURVE SMOOTH"
);
},
{
closed = 1;
nodes = (
"1487 -20 OFFCURVE",
"1530 17 OFFCURVE",
"1530 62 CURVE SMOOTH",
"1530 92 OFFCURVE",
"1520 118 OFFCURVE",
"1500 139 CURVE SMOOTH",
"1460 182 OFFCURVE",
"1322 250 OFFCURVE",
"1170 314 CURVE SMOOTH",
"1087 349 LINE SMOOTH",
"975 400 OFFCURVE",
"720 497 OFFCURVE",
"649 497 CURVE SMOOTH",
"606 497 OFFCURVE",
"565 456 OFFCURVE",
"565 405 CURVE SMOOTH",
"565 374 OFFCURVE",
"585 340 OFFCURVE",
"632 323 CURVE SMOOTH",
"796 262 LINE SMOOTH",
"1016 181 OFFCURVE",
"1141 124 OFFCURVE",
"1305 36 CURVE SMOOTH",
"1370 0 OFFCURVE",
"1407 -20 OFFCURVE",
"1435 -20 CURVE SMOOTH"
);
},
{
closed = 1;
nodes = (
"1308 445 LINE",
"1385 455 OFFCURVE",
"1474 460 OFFCURVE",
"1577 460 CURVE SMOOTH",
"1672 460 OFFCURVE",
"1761 455 OFFCURVE",
"1843 445 CURVE",
"1882 442 LINE",
"1930 442 OFFCURVE",
"1966 483 OFFCURVE",
"1966 531 CURVE SMOOTH",
"1966 556 OFFCURVE",
"1958 577 OFFCURVE",
"1943 592 CURVE SMOOTH",
"1927 607 OFFCURVE",
"1886 618 OFFCURVE",
"1819 627 CURVE SMOOTH",
"1752 636 OFFCURVE",
"1672 640 OFFCURVE",
"1577 640 CURVE SMOOTH",
"1416 640 OFFCURVE",
"1253 626 OFFCURVE",
"1215 595 CURVE SMOOTH",
"1196 579 OFFCURVE",
"1186 558 OFFCURVE",
"1186 531 CURVE SMOOTH",
"1186 483 OFFCURVE",
"1222 442 OFFCURVE",
"1270 442 CURVE"
);
}
);
width = 2096;
}
);
note = uni1BD0;
unicode = 1BD0;
},
{
glyphname = uni1BD1;
lastChange = "2016-11-10 14:10:43 +0000";
layers = (
{
layerId = "1F0B2016-46FD-49D8-B97E-96273C297819";
paths = (
{
closed = 1;
nodes = (
"230 518 OFFCURVE",
"258 526 OFFCURVE",
"301 543 CURVE SMOOTH",
"406 584 OFFCURVE",
"523 623 OFFCURVE",
"652 659 CURVE SMOOTH",
"911 730 OFFCURVE",
"1243 787 OFFCURVE",
"1432 807 CURVE SMOOTH",
"1473 812 OFFCURVE",
"1496 853 OFFCURVE",
"1496 890 CURVE SMOOTH",
"1496 942 OFFCURVE",
"1458 980 OFFCURVE",
"1411 980 CURVE SMOOTH",
"1336 980 OFFCURVE",
"1209 964 OFFCURVE",
"1030 931 CURVE SMOOTH",
"672 866 OFFCURVE",
"323 767 OFFCURVE",
"183 687 CURVE SMOOTH",
"148 666 OFFCURVE",
"130 640 OFFCURVE",
"130 609 CURVE SMOOTH",
"130 560 OFFCURVE",
"168 518 OFFCURVE",
"216 518 CURVE SMOOTH"
);
},
{
closed = 1;
nodes = (
"1487 -20 OFFCURVE",
"1530 17 OFFCURVE",
"1530 62 CURVE SMOOTH",
"1530 92 OFFCURVE",
"1520 118 OFFCURVE",
"1500 139 CURVE SMOOTH",
"1460 182 OFFCURVE",
"1322 250 OFFCURVE",
"1170 314 CURVE SMOOTH",
"1087 349 LINE SMOOTH",
"975 400 OFFCURVE",
"720 497 OFFCURVE",
"649 497 CURVE SMOOTH",
"606 497 OFFCURVE",
"565 456 OFFCURVE",
"565 405 CURVE SMOOTH",
"565 374 OFFCURVE",
"585 340 OFFCURVE",
"632 323 CURVE SMOOTH",
"796 262 LINE SMOOTH",
"1016 181 OFFCURVE",
"1141 124 OFFCURVE",
"1305 36 CURVE SMOOTH",
"1370 0 OFFCURVE",
"1407 -20 OFFCURVE",
"1435 -20 CURVE SMOOTH"
);
}
);
width = 1660;
}
);
note = uni1BD1;
unicode = 1BD1;
},
{
glyphname = uni1BD2;
lastChange = "2016-11-10 14:10:43 +0000";
layers = (
{
layerId = "1F0B2016-46FD-49D8-B97E-96273C297819";
paths = (
{
closed = 1;
nodes = (
"1379 -30 OFFCURVE",
"1402 -20 OFFCURVE",
"1417 0 CURVE SMOOTH",
"1503 114 OFFCURVE",
"1620 224 OFFCURVE",
"1769 331 CURVE SMOOTH",
"1800 354 OFFCURVE",
"1817 376 OFFCURVE",
"1817 428 CURVE SMOOTH",
"1817 472 OFFCURVE",
"1786 507 OFFCURVE",
"1724 532 CURVE SMOOTH",
"1599 583 OFFCURVE",
"1333 611 OFFCURVE",
"973 611 CURVE SMOOTH",
"712 611 OFFCURVE",
"375 559 OFFCURVE",
"187 483 CURVE SMOOTH",
"147 467 OFFCURVE",
"130 431 OFFCURVE",
"130 404 CURVE SMOOTH",
"130 353 OFFCURVE",
"167 311 OFFCURVE",
"214 311 CURVE SMOOTH",
"231 311 OFFCURVE",
"264 319 OFFCURVE",
"314 336 CURVE SMOOTH",
"439 381 OFFCURVE",
"758 431 OFFCURVE",
"973 431 CURVE SMOOTH",
"1265 431 OFFCURVE",
"1462 416 OFFCURVE",
"1564 387 CURVE",
"1439 294 OFFCURVE",
"1346 209 OFFCURVE",
"1284 134 CURVE SMOOTH",
"1263 110 OFFCURVE",
"1253 85 OFFCURVE",
"1253 58 CURVE SMOOTH",
"1253 14 OFFCURVE",
"1295 -30 OFFCURVE",
"1346 -30 CURVE SMOOTH"
);
},
{
closed = 1;
nodes = (
"231 695 OFFCURVE",
"264 703 OFFCURVE",
"314 720 CURVE SMOOTH",
"430 761 OFFCURVE",
"740 800 OFFCURVE",
"973 800 CURVE SMOOTH",
"1060 800 OFFCURVE",
"1157 797 OFFCURVE",
"1264 791 CURVE SMOOTH",
"1476 779 OFFCURVE",
"1570 768 OFFCURVE",
"1674 740 CURVE SMOOTH",
"1694 734 OFFCURVE",
"1715 731 OFFCURVE",
"1737 731 CURVE SMOOTH",
"1785 731 OFFCURVE",
"1821 776 OFFCURVE",
"1821 825 CURVE SMOOTH",
"1821 854 OFFCURVE",
"1809 877 OFFCURVE",
"1786 893 CURVE SMOOTH",
"1762 909 OFFCURVE",
"1713 924 OFFCURVE",
"1639 937 CURVE SMOOTH",
"1490 964 OFFCURVE",
"1240 980 OFFCURVE",
"973 980 CURVE SMOOTH",
"705 980 OFFCURVE",
"362 939 OFFCURVE",
"187 867 CURVE SMOOTH",
"147 851 OFFCURVE",
"130 815 OFFCURVE",
"130 788 CURVE SMOOTH",
"130 737 OFFCURVE",
"167 695 OFFCURVE",
"214 695 CURVE SMOOTH"
);
}
);
width = 1951;
}
);
note = uni1BD2;
unicode = 1BD2;
},
{
glyphname = uni1BD3;
lastChange = "2016-11-10 14:10:43 +0000";
layers = (
{
layerId = "1F0B2016-46FD-49D8-B97E-96273C297819";
paths = (
{
closed = 1;
nodes = (
"771 343 LINE SMOOTH",
"938 351 OFFCURVE",
"1068 355 OFFCURVE",
"1161 355 CURVE SMOOTH",
"1256 355 OFFCURVE",
"1461 347 OFFCURVE",
"1775 332 CURVE SMOOTH",
"1826 330 LINE",
"1874 330 OFFCURVE",
"1910 371 OFFCURVE",
"1910 419 CURVE SMOOTH",
"1910 454 OFFCURVE",
"1892 487 OFFCURVE",
"1860 499 CURVE SMOOTH",
"1843 505 OFFCURVE",
"1787 511 OFFCURVE",
"1691 517 CURVE SMOOTH",
"1498 529 OFFCURVE",
"1246 535 OFFCURVE",
"1161 535 CURVE SMOOTH",
"1084 535 OFFCURVE",
"804 529 OFFCURVE",
"626 518 CURVE SMOOTH",
"537 512 OFFCURVE",
"483 506 OFFCURVE",
"465 499 CURVE SMOOTH",
"429 486 OFFCURVE",
"410 454 OFFCURVE",
"410 419 CURVE SMOOTH",
"410 371 OFFCURVE",
"446 330 OFFCURVE",
"494 330 CURVE"
);
},
{
closed = 1;
nodes = (
"257 680 LINE SMOOTH",
"417 690 OFFCURVE",
"552 695 OFFCURVE",
"661 695 CURVE SMOOTH",
"763 695 OFFCURVE",
"897 690 OFFCURVE",
"1062 680 CURVE SMOOTH",
"1126 677 LINE",
"1174 677 OFFCURVE",
"1210 718 OFFCURVE",
"1210 766 CURVE SMOOTH",
"1210 805 OFFCURVE",
"1192 841 OFFCURVE",
"1133 850 CURVE SMOOTH",
"1103 855 OFFCURVE",
"1060 859 OFFCURVE",
"1005 863 CURVE SMOOTH",
"894 871 OFFCURVE",
"770 875 OFFCURVE",
"661 875 CURVE SMOOTH",
"484 875 OFFCURVE",
"280 865 OFFCURVE",
"208 854 CURVE SMOOTH",
"135 843 OFFCURVE",
"110 811 OFFCURVE",
"110 766 CURVE SMOOTH",
"110 718 OFFCURVE",
"146 677 OFFCURVE",
"194 677 CURVE"
);
},
{
closed = 1;
nodes = (
"1464 -11 OFFCURVE",
"1490 -9 OFFCURVE",
"1521 -5 CURVE SMOOTH",
"1552 -2 OFFCURVE",
"1590 0 OFFCURVE",
"1636 0 CURVE SMOOTH",
"1675 0 OFFCURVE",
"1711 -2 OFFCURVE",
"1745 -5 CURVE SMOOTH",
"1779 -9 OFFCURVE",
"1806 -11 OFFCURVE",
"1826 -11 CURVE SMOOTH",
"1874 -11 OFFCURVE",
"1910 30 OFFCURVE",
"1910 78 CURVE SMOOTH",
"1910 111 OFFCURVE",
"1892 136 OFFCURVE",
"1855 154 CURVE SMOOTH",
"1818 171 OFFCURVE",
"1745 180 OFFCURVE",
"1636 180 CURVE SMOOTH",
"1526 180 OFFCURVE",
"1453 171 OFFCURVE",
"1416 154 CURVE SMOOTH",
"1379 136 OFFCURVE",
"1360 111 OFFCURVE",
"1360 78 CURVE SMOOTH",
"1360 30 OFFCURVE",
"1396 -11 OFFCURVE",
"1444 -11 CURVE SMOOTH"
);
}
);
width = 2020;
}
);
note = uni1BD3;
unicode = 1BD3;
},
{
glyphname = uni1BD4;
lastChange = "2016-11-10 14:10:43 +0000";
layers = (
{
layerId = "1F0B2016-46FD-49D8-B97E-96273C297819";
paths = (
{
closed = 1;
nodes = (
"1984 -50 OFFCURVE",
"2028 -15 OFFCURVE",
"2028 41 CURVE SMOOTH",
"2028 87 OFFCURVE",
"2005 113 OFFCURVE",
"1960 119 CURVE SMOOTH",
"1922 124 LINE SMOOTH",
"1668 164 OFFCURVE",
"1455 213 OFFCURVE",
"1283 271 CURVE",
"1380 396 LINE SMOOTH",
"1529 591 OFFCURVE",
"1677 675 OFFCURVE",
"1908 695 CURVE SMOOTH",
"1988 701 OFFCURVE",
"2028 736 OFFCURVE",
"2028 800 CURVE SMOOTH",
"2028 839 OFFCURVE",
"1995 875 OFFCURVE",
"1911 875 CURVE SMOOTH",
"1655 875 OFFCURVE",
"1405 736 OFFCURVE",
"1214 479 CURVE SMOOTH",
"1110 340 LINE SMOOTH",
"1021 220 OFFCURVE",
"927 160 OFFCURVE",
"827 160 CURVE SMOOTH",
"770 160 OFFCURVE",
"720 181 OFFCURVE",
"677 222 CURVE SMOOTH",
"589 304 OFFCURVE",
"538 464 OFFCURVE",
"531 692 CURVE",
"661 695 LINE SMOOTH",
"692 695 OFFCURVE",
"1045 679 OFFCURVE",
"1081 675 CURVE SMOOTH",
"1113 671 LINE",
"1158 671 OFFCURVE",
"1189 720 OFFCURVE",
"1189 767 CURVE SMOOTH",
"1189 809 OFFCURVE",
"1163 835 OFFCURVE",
"1110 845 CURVE SMOOTH",
"1004 864 OFFCURVE",
"837 875 OFFCURVE",
"661 875 CURVE SMOOTH",
"580 875 OFFCURVE",
"396 868 OFFCURVE",
"246 850 CURVE SMOOTH",
"171 841 OFFCURVE",
"128 833 OFFCURVE",
"117 827 CURVE SMOOTH",
"96 815 OFFCURVE",
"80 783 OFFCURVE",
"80 752 CURVE SMOOTH",
"80 701 OFFCURVE",
"115 663 OFFCURVE",
"150 663 CURVE",
"187 666 LINE",
"213 671 OFFCURVE",
"266 676 OFFCURVE",
"346 683 CURVE",
"348 540 OFFCURVE",
"369 415 OFFCURVE",
"410 309 CURVE SMOOTH",
"490 96 OFFCURVE",
"640 -20 OFFCURVE",
"823 -20 CURVE SMOOTH",
"942 -20 OFFCURVE",
"1051 27 OFFCURVE",
"1151 121 CURVE",
"1396 26 OFFCURVE",
"1723 -50 OFFCURVE",
"1923 -50 CURVE SMOOTH"
);
}
);
width = 2158;
}
);
note = uni1BD4;
unicode = 1BD4;
},
{
glyphname = uni1BD5;
lastChange = "2016-11-10 14:10:43 +0000";
layers = (
{
layerId = "1F0B2016-46FD-49D8-B97E-96273C297819";
paths = (
{
closed = 1;
nodes = (
"890 263 OFFCURVE",
"927 277 OFFCURVE",
"967 305 CURVE SMOOTH",
"1383 578 OFFCURVE",
"1623 719 OFFCURVE",
"1984 810 CURVE SMOOTH",
"2073 831 OFFCURVE",
"2090 852 OFFCURVE",
"2090 911 CURVE SMOOTH",
"2090 957 OFFCURVE",
"2067 980 OFFCURVE",
"2020 980 CURVE SMOOTH",
"1896 980 OFFCURVE",
"1678 911 OFFCURVE",
"1434 794 CURVE SMOOTH",
"1189 677 OFFCURVE",
"896 490 OFFCURVE",
"815 413 CURVE SMOOTH",
"794 392 OFFCURVE",
"784 371 OFFCURVE",
"784 350 CURVE SMOOTH",
"784 302 OFFCURVE",
"811 263 OFFCURVE",
"856 263 CURVE SMOOTH"
);
},
{
closed = 1;
nodes = (
"227 620 OFFCURVE",
"254 630 OFFCURVE",
"286 651 CURVE SMOOTH",
"453 754 OFFCURVE",
"634 800 OFFCURVE",
"821 800 CURVE SMOOTH",
"931 800 OFFCURVE",
"1027 796 OFFCURVE",
"1108 787 CURVE SMOOTH",
"1141 784 LINE",
"1184 784 OFFCURVE",
"1212 828 OFFCURVE",
"1212 892 CURVE SMOOTH",
"1212 939 OFFCURVE",
"1161 960 OFFCURVE",
"1070 972 CURVE SMOOTH",
"1025 977 OFFCURVE",
"942 980 OFFCURVE",
"821 980 CURVE SMOOTH",
"602 980 OFFCURVE",
"342 906 OFFCURVE",
"221 820 CURVE SMOOTH",
"160 777 OFFCURVE",
"130 739 OFFCURVE",
"130 706 CURVE SMOOTH",
"130 646 OFFCURVE",
"165 620 OFFCURVE",
"205 620 CURVE SMOOTH"
);
},
{
closed = 1;
nodes = (
"2053 -20 OFFCURVE",
"2099 26 OFFCURVE",
"2099 74 CURVE SMOOTH",
"2099 91 OFFCURVE",
"2093 107 OFFCURVE",
"2081 121 CURVE SMOOTH",
"2057 148 OFFCURVE",
"1965 202 OFFCURVE",
"1886 240 CURVE SMOOTH",
"1806 278 OFFCURVE",
"1680 335 OFFCURVE",
"1588 371 CURVE SMOOTH",
"1496 406 OFFCURVE",
"1420 429 OFFCURVE",
"1391 429 CURVE SMOOTH",
"1347 429 OFFCURVE",
"1307 386 OFFCURVE",
"1307 335 CURVE SMOOTH",
"1307 304 OFFCURVE",
"1323 268 OFFCURVE",
"1371 248 CURVE",
"1395 237 OFFCURVE",
"1441 220 OFFCURVE",
"1508 197 CURVE SMOOTH",
"1681 137 OFFCURVE",
"1823 70 OFFCURVE",
"1934 -4 CURVE SMOOTH",
"1950 -15 OFFCURVE",
"1974 -20 OFFCURVE",
"2006 -20 CURVE SMOOTH"
);
}
);
width = 2229;
}
);
note = uni1BD5;
unicode = 1BD5;
},
{
glyphname = uni1BD6;
lastChange = "2016-11-10 14:10:43 +0000";
layers = (
{
layerId = "1F0B2016-46FD-49D8-B97E-96273C297819";
paths = (
{
closed = 1;
nodes = (
"256 -30 OFFCURVE",
"281 -19 OFFCURVE",
"311 2 CURVE SMOOTH",
"420 84 OFFCURVE",
"562 179 OFFCURVE",
"737 287 CURVE",
"870 207 OFFCURVE",
"994 139 OFFCURVE",
"1111 82 CURVE SMOOTH",
"1227 25 OFFCURVE",
"1298 -3 OFFCURVE",
"1323 -3 CURVE SMOOTH",
"1368 -3 OFFCURVE",
"1409 41 OFFCURVE",
"1409 89 CURVE SMOOTH",
"1409 118 OFFCURVE",
"1389 154 OFFCURVE",
"1346 173 CURVE SMOOTH",
"1152 258 OFFCURVE",
"1004 329 OFFCURVE",
"902 387 CURVE",
"1072 487 OFFCURVE",
"1244 581 OFFCURVE",
"1417 669 CURVE SMOOTH",
"1478 700 OFFCURVE",
"1494 734 OFFCURVE",
"1494 789 CURVE SMOOTH",
"1494 850 OFFCURVE",
"1429 897 OFFCURVE",
"1300 930 CURVE SMOOTH",
"1171 963 OFFCURVE",
"1005 980 OFFCURVE",
"802 980 CURVE SMOOTH",
"696 980 OFFCURVE",
"601 975 OFFCURVE",
"518 965 CURVE SMOOTH",
"350 945 OFFCURVE",
"221 903 OFFCURVE",
"175 859 CURVE SMOOTH",
"152 836 OFFCURVE",
"140 813 OFFCURVE",
"140 789 CURVE SMOOTH",
"140 750 OFFCURVE",
"177 697 OFFCURVE",
"252 628 CURVE SMOOTH",
"326 559 OFFCURVE",
"434 479 OFFCURVE",
"575 388 CURVE",
"418 291 OFFCURVE",
"201 143 OFFCURVE",
"172 111 CURVE SMOOTH",
"157 94 OFFCURVE",
"150 78 OFFCURVE",
"150 62 CURVE SMOOTH",
"150 14 OFFCURVE",
"191 -30 OFFCURVE",
"236 -30 CURVE SMOOTH"
);
},
{
closed = 1;
nodes = (
"617 562 OFFCURVE",
"496 651 OFFCURVE",
"373 754 CURVE",
"506 785 OFFCURVE",
"649 800 OFFCURVE",
"802 800 CURVE SMOOTH",
"942 800 OFFCURVE",
"1122 783 OFFCURVE",
"1251 754 CURVE",
"1094 684 OFFCURVE",
"923 594 OFFCURVE",
"737 485 CURVE"
);
}
);
width = 1634;
}
);
note = uni1BD6;
unicode = 1BD6;
},
{
glyphname = uni1BD7;
lastChange = "2016-11-10 13:44:54 +0000";
layers = (
{
layerId = "1F0B2016-46FD-49D8-B97E-96273C297819";
paths = (
{
closed = 1;
nodes = (
"950 -20 OFFCURVE",
"1085 53 OFFCURVE",
"1245 258 CURVE SMOOTH",
"1352 396 LINE SMOOTH",
"1441 512 OFFCURVE",
"1522 565 OFFCURVE",
"1622 565 CURVE SMOOTH",
"1667 565 OFFCURVE",
"1709 552 OFFCURVE",
"1748 527 CURVE SMOOTH",
"1827 475 OFFCURVE",
"1874 383 OFFCURVE",
"1874 290 CURVE SMOOTH",
"1874 214 OFFCURVE",
"1843 186 OFFCURVE",
"1765 171 CURVE SMOOTH",
"1726 164 OFFCURVE",
"1667 160 OFFCURVE",
"1588 160 CURVE SMOOTH",
"1505 160 OFFCURVE",
"1463 132 OFFCURVE",
"1463 77 CURVE SMOOTH",
"1463 8 OFFCURVE",
"1488 -20 OFFCURVE",
"1584 -20 CURVE SMOOTH",
"1712 -20 OFFCURVE",
"1810 -10 OFFCURVE",
"1877 10 CURVE SMOOTH",
"2011 49 OFFCURVE",
"2068 131 OFFCURVE",
"2068 290 CURVE SMOOTH",
"2068 372 OFFCURVE",
"2049 448 OFFCURVE",
"2010 519 CURVE SMOOTH",
"1933 659 OFFCURVE",
"1790 745 OFFCURVE",
"1626 745 CURVE SMOOTH",
"1462 745 OFFCURVE",
"1331 675 OFFCURVE",
"1186 479 CURVE SMOOTH",
"1082 340 LINE SMOOTH",
"993 220 OFFCURVE",
"899 160 OFFCURVE",
"799 160 CURVE SMOOTH",
"741 160 OFFCURVE",
"690 181 OFFCURVE",
"647 223 CURVE SMOOTH",
"560 306 OFFCURVE",
"507 467 OFFCURVE",
"503 695 CURVE",
"590 695 OFFCURVE",
"659 693 OFFCURVE",
"710 689 CURVE SMOOTH",
"761 684 OFFCURVE",
"796 682 OFFCURVE",
"816 682 CURVE SMOOTH",
"864 682 OFFCURVE",
"900 723 OFFCURVE",
"900 771 CURVE SMOOTH",
"900 810 OFFCURVE",
"876 838 OFFCURVE",
"829 856 CURVE SMOOTH",
"792 869 OFFCURVE",
"685 875 OFFCURVE",
"506 875 CURVE SMOOTH",
"326 875 OFFCURVE",
"218 869 OFFCURVE",
"181 856 CURVE SMOOTH",
"134 838 OFFCURVE",
"110 810 OFFCURVE",
"110 771 CURVE SMOOTH",
"110 723 OFFCURVE",
"146 682 OFFCURVE",
"194 682 CURVE",
"318 690 LINE",
"319 545 OFFCURVE",
"339 419 OFFCURVE",
"380 312 CURVE SMOOTH",
"461 96 OFFCURVE",
"611 -20 OFFCURVE",
"795 -20 CURVE SMOOTH"
);
}
);
width = 2198;
}
);
note = uni1BD7;
unicode = 1BD7;
},
{
glyphname = uni1BD8;
lastChange = "2016-11-10 14:10:43 +0000";
layers = (
{
layerId = "1F0B2016-46FD-49D8-B97E-96273C297819";
paths = (
{
closed = 1;
nodes = (
"1046 -30 OFFCURVE",
"1088 15 OFFCURVE",
"1088 63 CURVE SMOOTH",
"1088 97 OFFCURVE",
"1059 127 OFFCURVE",
"1001 154 CURVE",
"597 294 LINE",
"652 362 OFFCURVE",
"744 435 OFFCURVE",
"873 514 CURVE SMOOTH",
"1132 670 OFFCURVE",
"1439 779 OFFCURVE",
"1692 807 CURVE SMOOTH",
"1805 819 OFFCURVE",
"1857 848 OFFCURVE",
"1857 912 CURVE SMOOTH",
"1857 935 OFFCURVE",
"1847 952 OFFCURVE",
"1826 963 CURVE SMOOTH",
"1805 974 OFFCURVE",
"1767 980 OFFCURVE",
"1710 980 CURVE SMOOTH",
"1555 980 OFFCURVE",
"1359 930 OFFCURVE",
"1121 830 CURVE",
"1110 835 LINE SMOOTH",
"790 980 OFFCURVE",
"513 1040 OFFCURVE",
"245 1040 CURVE SMOOTH",
"160 1040 OFFCURVE",
"110 1012 OFFCURVE",
"110 960 CURVE SMOOTH",
"110 924 OFFCURVE",
"124 900 OFFCURVE",
"153 887 CURVE SMOOTH",
"160 884 OFFCURVE",
"175 881 OFFCURVE",
"200 879 CURVE SMOOTH",
"484 863 OFFCURVE",
"666 829 OFFCURVE",
"907 728 CURVE",
"702 618 OFFCURVE",
"545 502 OFFCURVE",
"438 379 CURVE SMOOTH",
"396 333 OFFCURVE",
"375 298 OFFCURVE",
"375 274 CURVE SMOOTH",
"375 222 OFFCURVE",
"405 184 OFFCURVE",
"464 161 CURVE SMOOTH",
"947 -20 LINE",
"962 -27 OFFCURVE",
"978 -30 OFFCURVE",
"995 -30 CURVE SMOOTH"
);
}
);
width = 1967;
}
);
note = uni1BD8;
unicode = 1BD8;
},
{
glyphname = uni1BD9;
lastChange = "2016-11-10 14:10:43 +0000";
layers = (
{
layerId = "1F0B2016-46FD-49D8-B97E-96273C297819";
paths = (
{
closed = 1;
nodes = (
"199 524 OFFCURVE",
"214 528 OFFCURVE",
"235 536 CURVE SMOOTH",
"516 643 OFFCURVE",
"758 695 OFFCURVE",
"1079 695 CURVE SMOOTH",
"1416 695 OFFCURVE",
"1690 658 OFFCURVE",
"1899 584 CURVE SMOOTH",
"1915 578 LINE",
"1943 566 OFFCURVE",
"1962 560 OFFCURVE",
"1971 560 CURVE SMOOTH",
"2016 560 OFFCURVE",
"2052 603 OFFCURVE",
"2052 656 CURVE SMOOTH",
"2052 691 OFFCURVE",
"2042 714 OFFCURVE",
"2021 725 CURVE SMOOTH",
"1853 820 OFFCURVE",
"1484 875 OFFCURVE",
"1079 875 CURVE SMOOTH",
"772 875 OFFCURVE",
"395 804 OFFCURVE",
"148 685 CURVE SMOOTH",
"123 673 OFFCURVE",
"110 650 OFFCURVE",
"110 616 CURVE SMOOTH",
"110 567 OFFCURVE",
"142 524 OFFCURVE",
"189 524 CURVE SMOOTH"
);
},
{
closed = 1;
nodes = (
"908 -11 OFFCURVE",
"934 -9 OFFCURVE",
"965 -5 CURVE SMOOTH",
"996 -2 OFFCURVE",
"1034 0 OFFCURVE",
"1080 0 CURVE SMOOTH",
"1119 0 OFFCURVE",
"1155 -2 OFFCURVE",
"1189 -5 CURVE SMOOTH",
"1223 -9 OFFCURVE",
"1250 -11 OFFCURVE",
"1270 -11 CURVE SMOOTH",
"1318 -11 OFFCURVE",
"1354 30 OFFCURVE",
"1354 78 CURVE SMOOTH",
"1354 111 OFFCURVE",
"1336 136 OFFCURVE",
"1299 154 CURVE SMOOTH",
"1262 171 OFFCURVE",
"1189 180 OFFCURVE",
"1080 180 CURVE SMOOTH",
"970 180 OFFCURVE",
"897 171 OFFCURVE",
"860 154 CURVE SMOOTH",
"823 136 OFFCURVE",
"804 111 OFFCURVE",
"804 78 CURVE SMOOTH",
"804 30 OFFCURVE",
"840 -11 OFFCURVE",
"888 -11 CURVE SMOOTH"
);
}
);
width = 2162;
}
);
note = uni1BD9;
unicode = 1BD9;
},
{
glyphname = uni1BDA;
lastChange = "2016-11-10 14:10:43 +0000";
layers = (
{
layerId = "1F0B2016-46FD-49D8-B97E-96273C297819";
paths = (
{
closed = 1;
nodes = (
"1198 -30 OFFCURVE",
"1244 1 OFFCURVE",
"1244 49 CURVE SMOOTH",
"1244 84 OFFCURVE",
"1195 165 OFFCURVE",
"1098 293 CURVE SMOOTH",
"1000 421 OFFCURVE",
"891 549 OFFCURVE",
"772 677 CURVE",
"871 689 OFFCURVE",
"974 695 OFFCURVE",
"1079 695 CURVE SMOOTH",
"1416 695 OFFCURVE",
"1690 658 OFFCURVE",
"1899 584 CURVE SMOOTH",
"1915 578 LINE",
"1943 566 OFFCURVE",
"1962 560 OFFCURVE",
"1971 560 CURVE SMOOTH",
"2016 560 OFFCURVE",
"2052 603 OFFCURVE",
"2052 656 CURVE SMOOTH",
"2052 691 OFFCURVE",
"2042 714 OFFCURVE",
"2021 725 CURVE SMOOTH",
"1853 820 OFFCURVE",
"1484 875 OFFCURVE",
"1079 875 CURVE SMOOTH",
"772 875 OFFCURVE",
"395 804 OFFCURVE",
"148 685 CURVE SMOOTH",
"123 673 OFFCURVE",
"110 650 OFFCURVE",
"110 616 CURVE SMOOTH",
"110 567 OFFCURVE",
"142 524 OFFCURVE",
"189 524 CURVE SMOOTH",
"199 524 OFFCURVE",
"214 528 OFFCURVE",
"235 536 CURVE SMOOTH",
"353 580 OFFCURVE",
"457 613 OFFCURVE",
"546 634 CURVE",
"668 505 OFFCURVE",
"750 416 OFFCURVE",
"793 369 CURVE SMOOTH",
"877 274 OFFCURVE",
"947 183 OFFCURVE",
"1062 16 CURVE SMOOTH",
"1083 -15 OFFCURVE",
"1113 -30 OFFCURVE",
"1150 -30 CURVE SMOOTH"
);
}
);
width = 2162;
}
);
note = uni1BDA;
unicode = 1BDA;
},
{
glyphname = uni1BDB;
lastChange = "2016-11-10 14:10:43 +0000";
layers = (
{
layerId = "1F0B2016-46FD-49D8-B97E-96273C297819";
paths = (
{
closed = 1;
nodes = (
"950 -20 OFFCURVE",
"1085 53 OFFCURVE",
"1245 258 CURVE SMOOTH",
"1352 396 LINE SMOOTH",
"1441 512 OFFCURVE",
"1522 565 OFFCURVE",
"1622 565 CURVE SMOOTH",
"1671 565 OFFCURVE",
"1714 552 OFFCURVE",
"1751 526 CURVE SMOOTH",
"1824 474 OFFCURVE",
"1875 356 OFFCURVE",
"1896 259 CURVE SMOOTH",
"1909 191 OFFCURVE",
"1940 158 OFFCURVE",
"1995 158 CURVE SMOOTH",
"2047 158 OFFCURVE",
"2082 192 OFFCURVE",
"2082 239 CURVE SMOOTH",
"2082 306 OFFCURVE",
"2062 385 OFFCURVE",
"2021 475 CURVE SMOOTH",
"1939 655 OFFCURVE",
"1803 745 OFFCURVE",
"1626 745 CURVE SMOOTH",
"1462 745 OFFCURVE",
"1331 675 OFFCURVE",
"1186 479 CURVE SMOOTH",
"1082 340 LINE SMOOTH",
"993 220 OFFCURVE",
"899 160 OFFCURVE",
"799 160 CURVE SMOOTH",
"741 160 OFFCURVE",
"690 181 OFFCURVE",
"647 223 CURVE SMOOTH",
"560 306 OFFCURVE",
"507 467 OFFCURVE",
"503 695 CURVE",
"590 695 OFFCURVE",
"659 693 OFFCURVE",
"710 689 CURVE SMOOTH",
"761 684 OFFCURVE",
"796 682 OFFCURVE",
"816 682 CURVE SMOOTH",
"864 682 OFFCURVE",
"900 723 OFFCURVE",
"900 771 CURVE SMOOTH",
"900 810 OFFCURVE",
"876 838 OFFCURVE",
"829 856 CURVE SMOOTH",
"792 869 OFFCURVE",
"685 875 OFFCURVE",
"506 875 CURVE SMOOTH",
"326 875 OFFCURVE",
"218 869 OFFCURVE",
"181 856 CURVE SMOOTH",
"134 838 OFFCURVE",
"110 810 OFFCURVE",
"110 771 CURVE SMOOTH",
"110 723 OFFCURVE",
"146 682 OFFCURVE",
"194 682 CURVE",
"318 690 LINE",
"319 545 OFFCURVE",
"339 419 OFFCURVE",
"380 312 CURVE SMOOTH",
"461 96 OFFCURVE",
"611 -20 OFFCURVE",
"795 -20 CURVE SMOOTH"
);
}
);
width = 2192;
}
);
note = uni1BDB;
unicode = 1BDB;
},
{
glyphname = uni1BDC;
lastChange = "2016-11-10 14:10:43 +0000";
layers = (
{
layerId = "1F0B2016-46FD-49D8-B97E-96273C297819";
paths = (
{
closed = 1;
nodes = (
"950 -20 OFFCURVE",
"1085 53 OFFCURVE",
"1245 258 CURVE SMOOTH",
"1352 396 LINE SMOOTH",
"1441 512 OFFCURVE",
"1522 565 OFFCURVE",
"1622 565 CURVE SMOOTH",
"1671 565 OFFCURVE",
"1714 552 OFFCURVE",
"1751 526 CURVE SMOOTH",
"1824 474 OFFCURVE",
"1875 356 OFFCURVE",
"1896 259 CURVE SMOOTH",
"1909 191 OFFCURVE",
"1940 158 OFFCURVE",
"1995 158 CURVE SMOOTH",
"2047 158 OFFCURVE",
"2082 192 OFFCURVE",
"2082 239 CURVE SMOOTH",
"2082 306 OFFCURVE",
"2062 385 OFFCURVE",
"2021 475 CURVE SMOOTH",
"1939 655 OFFCURVE",
"1803 745 OFFCURVE",
"1626 745 CURVE SMOOTH",
"1462 745 OFFCURVE",
"1331 675 OFFCURVE",
"1186 479 CURVE SMOOTH",
"1082 340 LINE SMOOTH",
"993 220 OFFCURVE",
"899 160 OFFCURVE",
"799 160 CURVE SMOOTH",
"748 160 OFFCURVE",
"704 175 OFFCURVE",
"666 204 CURVE SMOOTH",
"589 262 OFFCURVE",
"543 382 OFFCURVE",
"523 479 CURVE SMOOTH",
"507 547 OFFCURVE",
"476 579 OFFCURVE",
"423 579 CURVE SMOOTH",
"371 579 OFFCURVE",
"336 545 OFFCURVE",
"336 498 CURVE SMOOTH",
"336 429 OFFCURVE",
"357 350 OFFCURVE",
"398 259 CURVE SMOOTH",
"480 77 OFFCURVE",
"619 -20 OFFCURVE",
"795 -20 CURVE SMOOTH"
);
},
{
closed = 1;
nodes = (
"233 684 LINE SMOOTH",
"319 691 OFFCURVE",
"410 695 OFFCURVE",
"506 695 CURVE SMOOTH",
"595 695 OFFCURVE",
"664 693 OFFCURVE",
"713 689 CURVE SMOOTH",
"762 684 OFFCURVE",
"796 682 OFFCURVE",
"816 682 CURVE SMOOTH",
"864 682 OFFCURVE",
"900 723 OFFCURVE",
"900 771 CURVE SMOOTH",
"900 810 OFFCURVE",
"876 838 OFFCURVE",
"829 856 CURVE SMOOTH",
"792 869 OFFCURVE",
"685 875 OFFCURVE",
"506 875 CURVE SMOOTH",
"326 875 OFFCURVE",
"218 869 OFFCURVE",
"181 856 CURVE SMOOTH",
"134 838 OFFCURVE",
"110 810 OFFCURVE",
"110 771 CURVE SMOOTH",
"110 723 OFFCURVE",
"146 682 OFFCURVE",
"194 682 CURVE"
);
}
);
width = 2192;
}
);
note = uni1BDC;
unicode = 1BDC;
},
{
glyphname = uni1BDD;
lastChange = "2016-11-10 14:10:43 +0000";
layers = (
{
layerId = "1F0B2016-46FD-49D8-B97E-96273C297819";
paths = (
{
closed = 1;
nodes = (
"1398 -20 OFFCURVE",
"1439 21 OFFCURVE",
"1439 72 CURVE SMOOTH",
"1439 107 OFFCURVE",
"1421 143 OFFCURVE",
"1384 151 CURVE SMOOTH",
"1369 154 OFFCURVE",
"1316 169 OFFCURVE",
"1227 195 CURVE SMOOTH",
"1138 220 OFFCURVE",
"1040 250 OFFCURVE",
"933 283 CURVE SMOOTH",
"719 350 OFFCURVE",
"497 437 OFFCURVE",
"421 480 CURVE",
"473 513 OFFCURVE",
"569 554 OFFCURVE",
"710 605 CURVE SMOOTH",
"990 706 OFFCURVE",
"1195 762 OFFCURVE",
"1384 810 CURVE SMOOTH",
"1421 819 OFFCURVE",
"1439 854 OFFCURVE",
"1439 889 CURVE SMOOTH",
"1439 938 OFFCURVE",
"1401 980 OFFCURVE",
"1354 980 CURVE SMOOTH",
"1322 980 OFFCURVE",
"1228 957 OFFCURVE",
"1071 911 CURVE SMOOTH",
"757 819 OFFCURVE",
"514 723 OFFCURVE",
"327 643 CURVE SMOOTH",
"233 602 OFFCURVE",
"176 574 OFFCURVE",
"155 559 CURVE SMOOTH",
"125 538 OFFCURVE",
"110 514 OFFCURVE",
"110 487 CURVE SMOOTH",
"110 455 OFFCURVE",
"127 426 OFFCURVE",
"160 401 CURVE SMOOTH",
"187 380 OFFCURVE",
"280 337 OFFCURVE",
"440 271 CURVE SMOOTH",
"759 139 OFFCURVE",
"1027 58 OFFCURVE",
"1195 14 CURVE SMOOTH",
"1279 -9 OFFCURVE",
"1332 -20 OFFCURVE",
"1354 -20 CURVE SMOOTH"
);
}
);
width = 1549;
}
);
note = uni1BDD;
unicode = 1BDD;
},
{
glyphname = uni1BDE;
lastChange = "2016-11-10 14:10:43 +0000";
layers = (
{
layerId = "1F0B2016-46FD-49D8-B97E-96273C297819";
paths = (
{
closed = 1;
nodes = (
"652 183 OFFCURVE",
"696 226 OFFCURVE",
"696 271 CURVE SMOOTH",
"696 298 OFFCURVE",
"686 323 OFFCURVE",
"665 347 CURVE SMOOTH",
"599 426 OFFCURVE",
"498 518 OFFCURVE",
"363 621 CURVE",
"486 657 OFFCURVE",
"774 695 OFFCURVE",
"954 695 CURVE SMOOTH",
"1162 695 OFFCURVE",
"1506 666 OFFCURVE",
"1613 630 CURVE SMOOTH",
"1663 613 OFFCURVE",
"1696 605 OFFCURVE",
"1713 605 CURVE SMOOTH",
"1761 605 OFFCURVE",
"1797 647 OFFCURVE",
"1797 698 CURVE SMOOTH",
"1797 725 OFFCURVE",
"1780 761 OFFCURVE",
"1740 777 CURVE SMOOTH",
"1588 840 OFFCURVE",
"1317 875 OFFCURVE",
"954 875 CURVE SMOOTH",
"865 875 OFFCURVE",
"759 869 OFFCURVE",
"638 856 CURVE SMOOTH",
"395 830 OFFCURVE",
"230 789 OFFCURVE",
"162 745 CURVE SMOOTH",
"127 723 OFFCURVE",
"110 695 OFFCURVE",
"110 662 CURVE SMOOTH",
"110 610 OFFCURVE",
"127 588 OFFCURVE",
"158 565 CURVE SMOOTH",
"316 452 OFFCURVE",
"441 335 OFFCURVE",
"532 213 CURVE SMOOTH",
"547 193 OFFCURVE",
"571 183 OFFCURVE",
"603 183 CURVE SMOOTH"
);
}
);
width = 1907;
}
);
note = uni1BDE;
unicode = 1BDE;
},
{
glyphname = uni1BDF;
lastChange = "2016-11-10 14:10:43 +0000";
layers = (
{
layerId = "1F0B2016-46FD-49D8-B97E-96273C297819";
paths = (
{
closed = 1;
nodes = (
"199 520 OFFCURVE",
"214 524 OFFCURVE",
"235 532 CURVE SMOOTH",
"348 575 OFFCURVE",
"448 609 OFFCURVE",
"534 632 CURVE SMOOTH",
"705 679 OFFCURVE",
"838 695 OFFCURVE",
"1079 695 CURVE SMOOTH",
"1388 695 OFFCURVE",
"1666 643 OFFCURVE",
"1915 538 CURVE SMOOTH",
"1943 526 OFFCURVE",
"1962 520 OFFCURVE",
"1971 520 CURVE SMOOTH",
"2016 520 OFFCURVE",
"2052 563 OFFCURVE",
"2052 616 CURVE SMOOTH",
"2052 645 OFFCURVE",
"2042 666 OFFCURVE",
"2021 679 CURVE SMOOTH",
"1812 800 OFFCURVE",
"1424 875 OFFCURVE",
"1079 875 CURVE SMOOTH",
"691 875 OFFCURVE",
"407 808 OFFCURVE",
"148 681 CURVE SMOOTH",
"123 669 OFFCURVE",
"110 646 OFFCURVE",
"110 612 CURVE SMOOTH",
"110 563 OFFCURVE",
"142 520 OFFCURVE",
"189 520 CURVE SMOOTH"
);
},
{
closed = 1;
nodes = (
"243 -11 OFFCURVE",
"269 -9 OFFCURVE",
"300 -5 CURVE SMOOTH",
"331 -2 OFFCURVE",
"369 0 OFFCURVE",
"415 0 CURVE SMOOTH",
"454 0 OFFCURVE",
"490 -2 OFFCURVE",
"524 -5 CURVE SMOOTH",
"558 -9 OFFCURVE",
"585 -11 OFFCURVE",
"605 -11 CURVE SMOOTH",
"653 -11 OFFCURVE",
"689 30 OFFCURVE",
"689 78 CURVE SMOOTH",
"689 111 OFFCURVE",
"671 136 OFFCURVE",
"634 154 CURVE SMOOTH",
"597 171 OFFCURVE",
"524 180 OFFCURVE",
"415 180 CURVE SMOOTH",
"305 180 OFFCURVE",
"232 171 OFFCURVE",
"195 154 CURVE SMOOTH",
"158 136 OFFCURVE",
"139 111 OFFCURVE",
"139 78 CURVE SMOOTH",
"139 30 OFFCURVE",
"175 -11 OFFCURVE",
"223 -11 CURVE SMOOTH"
);
}
);
width = 2162;
}
);
note = uni1BDF;
unicode = 1BDF;
},
{
glyphname = uni1BE0;
lastChange = "2016-11-10 14:10:43 +0000";
layers = (
{
layerId = "1F0B2016-46FD-49D8-B97E-96273C297819";
paths = (
{
closed = 1;
nodes = (
"748 -25 OFFCURVE",
"790 20 OFFCURVE",
"790 68 CURVE SMOOTH",
"790 92 OFFCURVE",
"769 119 OFFCURVE",
"728 150 CURVE SMOOTH",
"644 210 OFFCURVE",
"437 290 OFFCURVE",
"345 310 CURVE",
"664 547 OFFCURVE",
"1054 673 OFFCURVE",
"1631 697 CURVE SMOOTH",
"1716 700 OFFCURVE",
"1769 716 OFFCURVE",
"1769 779 CURVE SMOOTH",
"1769 843 OFFCURVE",
"1720 875 OFFCURVE",
"1622 875 CURVE SMOOTH",
"1439 875 OFFCURVE",
"1254 854 OFFCURVE",
"1065 813 CURVE SMOOTH",
"687 729 OFFCURVE",
"382 583 OFFCURVE",
"173 395 CURVE SMOOTH",
"140 364 OFFCURVE",
"110 315 OFFCURVE",
"110 294 CURVE SMOOTH",
"110 242 OFFCURVE",
"150 196 OFFCURVE",
"206 177 CURVE SMOOTH",
"413 106 OFFCURVE",
"521 56 OFFCURVE",
"649 -15 CURVE",
"660 -22 OFFCURVE",
"676 -25 OFFCURVE",
"697 -25 CURVE SMOOTH"
);
},
{
closed = 1;
nodes = (
"1275 138 OFFCURVE",
"1317 181 OFFCURVE",
"1317 222 CURVE SMOOTH",
"1317 277 OFFCURVE",
"1263 323 OFFCURVE",
"1150 390 CURVE SMOOTH",
"1037 457 OFFCURVE",
"954 493 OFFCURVE",
"902 493 CURVE SMOOTH",
"851 493 OFFCURVE",
"814 459 OFFCURVE",
"814 407 CURVE SMOOTH",
"814 383 OFFCURVE",
"822 364 OFFCURVE",
"838 351 CURVE",
"853 337 OFFCURVE",
"885 320 OFFCURVE",
"934 299 CURVE SMOOTH",
"991 275 OFFCURVE",
"1045 246 OFFCURVE",
"1096 211 CURVE SMOOTH",
"1139 181 OFFCURVE",
"1169 161 OFFCURVE",
"1187 152 CURVE SMOOTH",
"1204 143 OFFCURVE",
"1219 138 OFFCURVE",
"1230 138 CURVE SMOOTH"
);
}
);
width = 1879;
}
);
note = uni1BE0;
unicode = 1BE0;
},
{
glyphname = uni1BE1;
lastChange = "2016-11-10 14:10:43 +0000";
layers = (
{
layerId = "1F0B2016-46FD-49D8-B97E-96273C297819";
paths = (
{
closed = 1;
nodes = (
"602 -20 OFFCURVE",
"658 -7 OFFCURVE",
"710 19 CURVE SMOOTH",
"813 71 OFFCURVE",
"888 158 OFFCURVE",
"1003 366 CURVE SMOOTH",
"1038 429 OFFCURVE",
"1069 475 OFFCURVE",
"1096 503 CURVE SMOOTH",
"1122 530 OFFCURVE",
"1148 544 OFFCURVE",
"1175 544 CURVE SMOOTH",
"1202 544 OFFCURVE",
"1226 533 OFFCURVE",
"1247 512 CURVE SMOOTH",
"1268 490 OFFCURVE",
"1300 444 OFFCURVE",
"1343 373 CURVE SMOOTH",
"1411 258 OFFCURVE",
"1502 201 OFFCURVE",
"1616 201 CURVE SMOOTH",
"1773 201 OFFCURVE",
"1909 325 OFFCURVE",
"1960 508 CURVE SMOOTH",
"1968 536 OFFCURVE",
"1972 568 OFFCURVE",
"1972 604 CURVE SMOOTH",
"1972 651 OFFCURVE",
"1937 685 OFFCURVE",
"1885 685 CURVE SMOOTH",
"1832 685 OFFCURVE",
"1804 653 OFFCURVE",
"1788 584 CURVE",
"1780 555 OFFCURVE",
"1769 525 OFFCURVE",
"1754 492 CURVE SMOOTH",
"1725 427 OFFCURVE",
"1673 381 OFFCURVE",
"1612 381 CURVE SMOOTH",
"1583 381 OFFCURVE",
"1555 393 OFFCURVE",
"1530 418 CURVE SMOOTH",
"1505 443 OFFCURVE",
"1472 488 OFFCURVE",
"1433 553 CURVE SMOOTH",
"1362 668 OFFCURVE",
"1282 724 OFFCURVE",
"1179 724 CURVE SMOOTH",
"1087 724 OFFCURVE",
"1018 672 OFFCURVE",
"958 600 CURVE",
"878 775 OFFCURVE",
"743 874 OFFCURVE",
"582 874 CURVE SMOOTH",
"495 874 OFFCURVE",
"417 855 OFFCURVE",
"349 817 CURVE SMOOTH",
"212 741 OFFCURVE",
"130 596 OFFCURVE",
"130 427 CURVE SMOOTH",
"130 346 OFFCURVE",
"148 271 OFFCURVE",
"185 202 CURVE SMOOTH",
"258 64 OFFCURVE",
"393 -20 OFFCURVE",
"542 -20 CURVE SMOOTH"
);
},
{
closed = 1;
nodes = (
"425 160 OFFCURVE",
"329 270 OFFCURVE",
"329 426 CURVE SMOOTH",
"329 583 OFFCURVE",
"424 694 OFFCURVE",
"568 694 CURVE SMOOTH",
"688 694 OFFCURVE",
"792 580 OFFCURVE",
"828 407 CURVE",
"785 336 OFFCURVE",
"751 285 OFFCURVE",
"726 254 CURVE SMOOTH",
"675 193 OFFCURVE",
"624 160 OFFCURVE",
"568 160 CURVE SMOOTH"
);
}
);
width = 2082;
}
);
note = uni1BE1;
unicode = 1BE1;
},
{
glyphname = uni1BE2;
lastChange = "2016-11-10 14:10:43 +0000";
layers = (
{
layerId = "1F0B2016-46FD-49D8-B97E-96273C297819";
paths = (
{
closed = 1;
nodes = (
"1643 302 OFFCURVE",
"1681 340 OFFCURVE",
"1681 395 CURVE SMOOTH",
"1681 424 OFFCURVE",
"1669 447 OFFCURVE",
"1646 464 CURVE",
"1577 511 OFFCURVE",
"1446 578 OFFCURVE",
"1251 663 CURVE SMOOTH",
"862 834 OFFCURVE",
"481 965 OFFCURVE",
"325 980 CURVE",
"262 980 OFFCURVE",
"220 947 OFFCURVE",
"220 891 CURVE SMOOTH",
"220 864 OFFCURVE",
"231 839 OFFCURVE",
"254 823 CURVE SMOOTH",
"265 815 OFFCURVE",
"294 805 OFFCURVE",
"339 794 CURVE SMOOTH",
"418 774 LINE SMOOTH",
"749 687 OFFCURVE",
"1336 425 OFFCURVE",
"1508 333 CURVE SMOOTH",
"1545 312 OFFCURVE",
"1574 302 OFFCURVE",
"1594 302 CURVE SMOOTH"
);
},
{
closed = 1;
nodes = (
"234 -30 OFFCURVE",
"258 -25 OFFCURVE",
"274 -14 CURVE SMOOTH",
"295 0 OFFCURVE",
"323 17 OFFCURVE",
"358 36 CURVE SMOOTH",
"427 74 OFFCURVE",
"562 136 OFFCURVE",
"699 183 CURVE SMOOTH",
"816 222 OFFCURVE",
"898 240 OFFCURVE",
"898 319 CURVE SMOOTH",
"898 370 OFFCURVE",
"857 411 OFFCURVE",
"814 411 CURVE SMOOTH",
"731 411 OFFCURVE",
"316 236 OFFCURVE",
"169 141 CURVE SMOOTH",
"144 125 OFFCURVE",
"110 103 OFFCURVE",
"110 62 CURVE SMOOTH",
"110 15 OFFCURVE",
"155 -30 OFFCURVE",
"203 -30 CURVE SMOOTH"
);
}
);
width = 1791;
}
);
note = uni1BE2;
unicode = 1BE2;
},
{
glyphname = uni1BE3;
lastChange = "2016-11-10 14:10:43 +0000";
layers = (
{
layerId = "1F0B2016-46FD-49D8-B97E-96273C297819";
paths = (
{
closed = 1;
nodes = (
"1559 -20 OFFCURVE",
"1888 164 OFFCURVE",
"1888 480 CURVE SMOOTH",
"1888 583 OFFCURVE",
"1854 671 OFFCURVE",
"1787 745 CURVE SMOOTH",
"1651 893 OFFCURVE",
"1375 980 OFFCURVE",
"1014 980 CURVE SMOOTH",
"837 980 OFFCURVE",
"681 959 OFFCURVE",
"547 918 CURVE SMOOTH",
"278 834 OFFCURVE",
"140 681 OFFCURVE",
"140 480 CURVE SMOOTH",
"140 161 OFFCURVE",
"462 -20 OFFCURVE",
"1014 -20 CURVE SMOOTH"
);
},
{
closed = 1;
nodes = (
"589 160 OFFCURVE",
"334 273 OFFCURVE",
"334 480 CURVE SMOOTH",
"334 684 OFFCURVE",
"593 800 OFFCURVE",
"1014 800 CURVE SMOOTH",
"1434 800 OFFCURVE",
"1694 681 OFFCURVE",
"1694 480 CURVE SMOOTH",
"1694 275 OFFCURVE",
"1430 160 OFFCURVE",
"1014 160 CURVE SMOOTH"
);
},
{
closed = 1;
nodes = (
"1091 356 OFFCURVE",
"1153 418 OFFCURVE",
"1153 495 CURVE SMOOTH",
"1153 572 OFFCURVE",
"1091 634 OFFCURVE",
"1014 634 CURVE SMOOTH",
"937 634 OFFCURVE",
"875 572 OFFCURVE",
"875 495 CURVE SMOOTH",
"875 418 OFFCURVE",
"937 356 OFFCURVE",
"1014 356 CURVE SMOOTH"
);
}
);
width = 2028;
}
);
note = uni1BE3;
unicode = 1BE3;
},
{
glyphname = uni1BE4;
lastChange = "2016-11-10 14:10:43 +0000";
layers = (
{
layerId = "1F0B2016-46FD-49D8-B97E-96273C297819";
paths = (
{
closed = 1;
nodes = (
"211 795 OFFCURVE",
"244 803 OFFCURVE",
"294 820 CURVE SMOOTH",
"414 861 OFFCURVE",
"694 900 OFFCURVE",
"933 900 CURVE SMOOTH",
"1146 900 OFFCURVE",
"1442 866 OFFCURVE",
"1589 815 CURVE SMOOTH",
"1626 802 OFFCURVE",
"1655 795 OFFCURVE",
"1675 795 CURVE SMOOTH",
"1723 795 OFFCURVE",
"1759 840 OFFCURVE",
"1759 889 CURVE SMOOTH",
"1759 928 OFFCURVE",
"1735 949 OFFCURVE",
"1688 974 CURVE SMOOTH",
"1563 1038 OFFCURVE",
"1246 1080 OFFCURVE",
"933 1080 CURVE SMOOTH",
"839 1080 OFFCURVE",
"739 1076 OFFCURVE",
"633 1067 CURVE SMOOTH",
"421 1050 OFFCURVE",
"271 1017 OFFCURVE",
"179 973 CURVE SMOOTH",
"133 951 OFFCURVE",
"110 923 OFFCURVE",
"110 888 CURVE SMOOTH",
"110 837 OFFCURVE",
"147 795 OFFCURVE",
"194 795 CURVE SMOOTH"
);
},
{
closed = 1;
nodes = (
"760 -11 OFFCURVE",
"786 -9 OFFCURVE",
"817 -5 CURVE SMOOTH",
"848 -2 OFFCURVE",
"886 0 OFFCURVE",
"932 0 CURVE SMOOTH",
"971 0 OFFCURVE",
"1007 -2 OFFCURVE",
"1041 -5 CURVE SMOOTH",
"1075 -9 OFFCURVE",
"1102 -11 OFFCURVE",
"1122 -11 CURVE SMOOTH",
"1170 -11 OFFCURVE",
"1206 30 OFFCURVE",
"1206 78 CURVE SMOOTH",
"1206 111 OFFCURVE",
"1188 136 OFFCURVE",
"1151 154 CURVE SMOOTH",
"1114 171 OFFCURVE",
"1041 180 OFFCURVE",
"932 180 CURVE SMOOTH",
"822 180 OFFCURVE",
"749 171 OFFCURVE",
"712 154 CURVE SMOOTH",
"675 136 OFFCURVE",
"656 111 OFFCURVE",
"656 78 CURVE SMOOTH",
"656 30 OFFCURVE",
"692 -11 OFFCURVE",
"740 -11 CURVE SMOOTH"
);
},
{
closed = 1;
nodes = (
"615 432 LINE SMOOTH",
"732 445 OFFCURVE",
"837 451 OFFCURVE",
"930 451 CURVE SMOOTH",
"1015 451 OFFCURVE",
"1119 445 OFFCURVE",
"1242 432 CURVE SMOOTH",
"1290 428 LINE",
"1338 428 OFFCURVE",
"1374 469 OFFCURVE",
"1374 517 CURVE SMOOTH",
"1374 556 OFFCURVE",
"1350 584 OFFCURVE",
"1303 602 CURVE SMOOTH",
"1266 615 OFFCURVE",
"1086 631 OFFCURVE",
"930 631 CURVE SMOOTH",
"757 631 OFFCURVE",
"584 616 OFFCURVE",
"544 598 CURVE SMOOTH",
"504 580 OFFCURVE",
"484 553 OFFCURVE",
"484 517 CURVE SMOOTH",
"484 469 OFFCURVE",
"520 428 OFFCURVE",
"568 428 CURVE"
);
}
);
width = 1869;
}
);
note = uni1BE4;
unicode = 1BE4;
},
{
glyphname = uni1BE5;
lastChange = "2016-11-10 14:10:43 +0000";
layers = (
{
layerId = "1F0B2016-46FD-49D8-B97E-96273C297819";
paths = (
{
closed = 1;
nodes = (
"1246 -20 OFFCURVE",
"1563 22 OFFCURVE",
"1688 86 CURVE SMOOTH",
"1735 111 OFFCURVE",
"1759 132 OFFCURVE",
"1759 171 CURVE SMOOTH",
"1759 220 OFFCURVE",
"1723 265 OFFCURVE",
"1675 265 CURVE SMOOTH",
"1655 265 OFFCURVE",
"1626 258 OFFCURVE",
"1589 245 CURVE SMOOTH",
"1442 194 OFFCURVE",
"1146 160 OFFCURVE",
"933 160 CURVE SMOOTH",
"694 160 OFFCURVE",
"414 199 OFFCURVE",
"294 240 CURVE SMOOTH",
"244 257 OFFCURVE",
"211 265 OFFCURVE",
"194 265 CURVE SMOOTH",
"147 265 OFFCURVE",
"110 223 OFFCURVE",
"110 172 CURVE SMOOTH",
"110 137 OFFCURVE",
"133 109 OFFCURVE",
"179 87 CURVE SMOOTH",
"225 65 OFFCURVE",
"286 46 OFFCURVE",
"361 30 CURVE SMOOTH",
"512 -2 OFFCURVE",
"745 -20 OFFCURVE",
"933 -20 CURVE SMOOTH"
);
},
{
closed = 1;
nodes = (
"1008 429 OFFCURVE",
"1085 432 OFFCURVE",
"1161 439 CURVE SMOOTH",
"1313 451 OFFCURVE",
"1374 466 OFFCURVE",
"1374 543 CURVE SMOOTH",
"1374 591 OFFCURVE",
"1338 632 OFFCURVE",
"1290 632 CURVE",
"1242 628 LINE SMOOTH",
"1119 615 OFFCURVE",
"1015 609 OFFCURVE",
"930 609 CURVE SMOOTH",
"837 609 OFFCURVE",
"732 615 OFFCURVE",
"615 628 CURVE SMOOTH",
"568 632 LINE",
"520 632 OFFCURVE",
"484 591 OFFCURVE",
"484 543 CURVE SMOOTH",
"484 507 OFFCURVE",
"504 481 OFFCURVE",
"544 463 CURVE SMOOTH",
"584 445 OFFCURVE",
"757 429 OFFCURVE",
"930 429 CURVE SMOOTH"
);
},
{
closed = 1;
nodes = (
"1041 880 OFFCURVE",
"1114 889 OFFCURVE",
"1151 907 CURVE SMOOTH",
"1188 924 OFFCURVE",
"1206 949 OFFCURVE",
"1206 982 CURVE SMOOTH",
"1206 1030 OFFCURVE",
"1170 1071 OFFCURVE",
"1122 1071 CURVE SMOOTH",
"1102 1071 OFFCURVE",
"1075 1069 OFFCURVE",
"1041 1066 CURVE SMOOTH",
"1007 1062 OFFCURVE",
"971 1060 OFFCURVE",
"932 1060 CURVE SMOOTH",
"886 1060 OFFCURVE",
"848 1062 OFFCURVE",
"817 1066 CURVE SMOOTH",
"786 1069 OFFCURVE",
"760 1071 OFFCURVE",
"740 1071 CURVE SMOOTH",
"692 1071 OFFCURVE",
"656 1030 OFFCURVE",
"656 982 CURVE SMOOTH",
"656 949 OFFCURVE",
"675 924 OFFCURVE",
"712 907 CURVE SMOOTH",
"749 889 OFFCURVE",
"822 880 OFFCURVE",
"932 880 CURVE SMOOTH"
);
}
);
width = 1869;
}
);
note = uni1BE5;
unicode = 1BE5;
},
{
glyphname = uni1BE6;
lastChange = "2016-11-10 14:10:43 +0000";
layers = (
{
layerId = "1F0B2016-46FD-49D8-B97E-96273C297819";
paths = (
{
closed = 1;
nodes = (
"-1046 1415 OFFCURVE",
"-1020 1417 OFFCURVE",
"-989 1421 CURVE SMOOTH",
"-958 1424 OFFCURVE",
"-920 1426 OFFCURVE",
"-874 1426 CURVE SMOOTH",
"-835 1426 OFFCURVE",
"-799 1424 OFFCURVE",
"-765 1421 CURVE SMOOTH",
"-731 1417 OFFCURVE",
"-704 1415 OFFCURVE",
"-684 1415 CURVE SMOOTH",
"-628 1415 OFFCURVE",
"-600 1437 OFFCURVE",
"-600 1481 CURVE SMOOTH",
"-600 1505 OFFCURVE",
"-612 1524 OFFCURVE",
"-637 1538 CURVE SMOOTH",
"-686 1565 OFFCURVE",
"-767 1573 OFFCURVE",
"-874 1573 CURVE SMOOTH",
"-935 1573 OFFCURVE",
"-984 1570 OFFCURVE",
"-1021 1565 CURVE SMOOTH",
"-1097 1554 OFFCURVE",
"-1150 1529 OFFCURVE",
"-1150 1481 CURVE SMOOTH",
"-1150 1437 OFFCURVE",
"-1122 1415 OFFCURVE",
"-1066 1415 CURVE SMOOTH"
);
},
{
closed = 1;
nodes = (
"-1046 1130 OFFCURVE",
"-1020 1132 OFFCURVE",
"-989 1136 CURVE SMOOTH",
"-958 1139 OFFCURVE",
"-920 1141 OFFCURVE",
"-874 1141 CURVE SMOOTH",
"-835 1141 OFFCURVE",
"-799 1139 OFFCURVE",
"-765 1136 CURVE SMOOTH",
"-731 1132 OFFCURVE",
"-704 1130 OFFCURVE",
"-684 1130 CURVE SMOOTH",
"-628 1130 OFFCURVE",
"-600 1152 OFFCURVE",
"-600 1196 CURVE SMOOTH",
"-600 1220 OFFCURVE",
"-612 1239 OFFCURVE",
"-637 1253 CURVE SMOOTH",
"-686 1280 OFFCURVE",
"-767 1288 OFFCURVE",
"-874 1288 CURVE SMOOTH",
"-935 1288 OFFCURVE",
"-984 1285 OFFCURVE",
"-1021 1280 CURVE SMOOTH",
"-1097 1269 OFFCURVE",
"-1150 1244 OFFCURVE",
"-1150 1196 CURVE SMOOTH",
"-1150 1152 OFFCURVE",
"-1122 1130 OFFCURVE",
"-1066 1130 CURVE SMOOTH"
);
}
);
width = 0;
}
);
note = uni1BE6;
unicode = 1BE6;
},
{
glyphname = uni1BE7;
lastChange = "2016-11-10 14:10:43 +0000";
layers = (
{
layerId = "1F0B2016-46FD-49D8-B97E-96273C297819";
paths = (
{
closed = 1;
nodes = (
"138 0 OFFCURVE",
"190 29 OFFCURVE",
"267 86 CURVE SMOOTH",
"421 200 OFFCURVE",
"552 342 OFFCURVE",
"552 394 CURVE SMOOTH",
"552 421 OFFCURVE",
"523 466 OFFCURVE",
"465 528 CURVE SMOOTH",
"349 652 OFFCURVE",
"166 789 OFFCURVE",
"113 789 CURVE SMOOTH",
"66 789 OFFCURVE",
"30 758 OFFCURVE",
"30 706 CURVE SMOOTH",
"30 673 OFFCURVE",
"43 648 OFFCURVE",
"70 630 CURVE SMOOTH",
"193 551 OFFCURVE",
"299 459 OFFCURVE",
"355 391 CURVE",
"290 316 OFFCURVE",
"195 238 OFFCURVE",
"70 159 CURVE SMOOTH",
"43 141 OFFCURVE",
"30 116 OFFCURVE",
"30 83 CURVE SMOOTH",
"30 31 OFFCURVE",
"66 0 OFFCURVE",
"113 0 CURVE SMOOTH"
);
}
);
width = 652;
}
);
note = uni1BE7;
unicode = 1BE7;
},
{
glyphname = uni1BE8;
lastChange = "2016-11-10 14:10:43 +0000";
layers = (
{
layerId = "1F0B2016-46FD-49D8-B97E-96273C297819";
paths = (
{
closed = 1;
nodes = (
"-354 1130 OFFCURVE",
"-336 1137 OFFCURVE",
"-320 1152 CURVE SMOOTH",
"-250 1221 OFFCURVE",
"-159 1293 OFFCURVE",
"-47 1369 CURVE SMOOTH",
"-20 1388 OFFCURVE",
"0 1420 OFFCURVE",
"0 1451 CURVE SMOOTH",
"0 1479 OFFCURVE",
"-22 1515 OFFCURVE",
"-66 1560 CURVE SMOOTH",
"-155 1649 OFFCURVE",
"-323 1763 OFFCURVE",
"-375 1763 CURVE SMOOTH",
"-418 1763 OFFCURVE",
"-451 1734 OFFCURVE",
"-451 1685 CURVE SMOOTH",
"-451 1658 OFFCURVE",
"-434 1635 OFFCURVE",
"-401 1615 CURVE SMOOTH",
"-317 1564 OFFCURVE",
"-234 1516 OFFCURVE",
"-177 1451 CURVE",
"-254 1410 OFFCURVE",
"-356 1329 OFFCURVE",
"-401 1281 CURVE SMOOTH",
"-418 1263 LINE SMOOTH",
"-440 1241 OFFCURVE",
"-451 1223 OFFCURVE",
"-451 1208 CURVE SMOOTH",
"-451 1159 OFFCURVE",
"-418 1130 OFFCURVE",
"-375 1130 CURVE SMOOTH"
);
}
);
width = 0;
}
);
note = uni1BE8;
unicode = 1BE8;
},
{
glyphname = uni1BE9;
lastChange = "2016-11-10 14:10:43 +0000";
layers = (
{
layerId = "1F0B2016-46FD-49D8-B97E-96273C297819";
paths = (
{
closed = 1;
nodes = (
"-1086 1130 OFFCURVE",
"-1057 1132 OFFCURVE",
"-1019 1136 CURVE SMOOTH",
"-982 1139 OFFCURVE",
"-940 1141 OFFCURVE",
"-894 1141 CURVE SMOOTH",
"-857 1141 OFFCURVE",
"-817 1139 OFFCURVE",
"-775 1136 CURVE SMOOTH",
"-684 1130 LINE",
"-628 1130 OFFCURVE",
"-600 1152 OFFCURVE",
"-600 1196 CURVE SMOOTH",
"-600 1211 OFFCURVE",
"-603 1222 OFFCURVE",
"-609 1231 CURVE",
"-622 1248 OFFCURVE",
"-662 1270 OFFCURVE",
"-717 1278 CURVE SMOOTH",
"-772 1285 OFFCURVE",
"-830 1288 OFFCURVE",
"-894 1288 CURVE SMOOTH",
"-1017 1288 OFFCURVE",
"-1096 1279 OFFCURVE",
"-1138 1260 CURVE SMOOTH",
"-1180 1240 OFFCURVE",
"-1190 1225 OFFCURVE",
"-1190 1196 CURVE SMOOTH",
"-1190 1152 OFFCURVE",
"-1162 1130 OFFCURVE",
"-1106 1130 CURVE SMOOTH"
);
}
);
width = 0;
}
);
note = uni1BE9;
unicode = 1BE9;
},
{
glyphname = uni1BEA;
lastChange = "2016-11-10 14:10:43 +0000";
layers = (
{
layerId = "1F0B2016-46FD-49D8-B97E-96273C297819";
paths = (
{
closed = 1;
nodes = (
"526 0 OFFCURVE",
"601 18 OFFCURVE",
"670 55 CURVE SMOOTH",
"806 127 OFFCURVE",
"889 266 OFFCURVE",
"889 419 CURVE SMOOTH",
"889 647 OFFCURVE",
"715 808 OFFCURVE",
"471 808 CURVE SMOOTH",
"389 808 OFFCURVE",
"314 790 OFFCURVE",
"247 753 CURVE SMOOTH",
"111 680 OFFCURVE",
"30 543 OFFCURVE",
"30 388 CURVE SMOOTH",
"30 317 OFFCURVE",
"47 251 OFFCURVE",
"82 191 CURVE SMOOTH",
"151 70 OFFCURVE",
"284 0 OFFCURVE",
"443 0 CURVE SMOOTH"
);
},
{
closed = 1;
nodes = (
"312 170 OFFCURVE",
"210 265 OFFCURVE",
"210 393 CURVE SMOOTH",
"210 529 OFFCURVE",
"324 638 OFFCURVE",
"464 638 CURVE SMOOTH",
"603 638 OFFCURVE",
"707 544 OFFCURVE",
"707 413 CURVE SMOOTH",
"707 277 OFFCURVE",
"599 170 OFFCURVE",
"448 170 CURVE SMOOTH"
);
}
);
width = 989;
}
);
note = uni1BEA;
unicode = 1BEA;
},
{
glyphname = uni1BEB;
lastChange = "2016-11-10 14:10:43 +0000";
layers = (
{
layerId = "1F0B2016-46FD-49D8-B97E-96273C297819";
paths = (
{
closed = 1;
nodes = (
"134 543 OFFCURVE",
"161 545 OFFCURVE",
"196 549 CURVE SMOOTH",
"230 552 OFFCURVE",
"270 554 OFFCURVE",
"316 554 CURVE SMOOTH",
"353 554 OFFCURVE",
"393 552 OFFCURVE",
"435 549 CURVE SMOOTH",
"526 543 LINE",
"582 543 OFFCURVE",
"610 565 OFFCURVE",
"610 609 CURVE SMOOTH",
"610 624 OFFCURVE",
"607 635 OFFCURVE",
"601 644 CURVE",
"588 661 OFFCURVE",
"548 683 OFFCURVE",
"493 691 CURVE SMOOTH",
"438 698 OFFCURVE",
"380 701 OFFCURVE",
"316 701 CURVE SMOOTH",
"255 701 OFFCURVE",
"204 699 OFFCURVE",
"164 694 CURVE SMOOTH",
"84 684 OFFCURVE",
"30 657 OFFCURVE",
"30 609 CURVE SMOOTH",
"30 565 OFFCURVE",
"58 543 OFFCURVE",
"114 543 CURVE SMOOTH"
);
},
{
closed = 1;
nodes = (
"134 208 OFFCURVE",
"161 210 OFFCURVE",
"196 214 CURVE SMOOTH",
"230 217 OFFCURVE",
"270 219 OFFCURVE",
"316 219 CURVE SMOOTH",
"353 219 OFFCURVE",
"393 217 OFFCURVE",
"435 214 CURVE SMOOTH",
"526 208 LINE",
"582 208 OFFCURVE",
"610 230 OFFCURVE",
"610 274 CURVE SMOOTH",
"610 289 OFFCURVE",
"607 300 OFFCURVE",
"601 309 CURVE",
"588 326 OFFCURVE",
"548 348 OFFCURVE",
"493 356 CURVE SMOOTH",
"438 363 OFFCURVE",
"380 366 OFFCURVE",
"316 366 CURVE SMOOTH",
"255 366 OFFCURVE",
"204 364 OFFCURVE",
"164 359 CURVE SMOOTH",
"84 349 OFFCURVE",
"30 322 OFFCURVE",
"30 274 CURVE SMOOTH",
"30 230 OFFCURVE",
"58 208 OFFCURVE",
"114 208 CURVE SMOOTH"
);
}
);
width = 710;
}
);
note = uni1BEB;
unicode = 1BEB;
},
{
glyphname = uni1BEC;
lastChange = "2016-11-10 14:10:43 +0000";
layers = (
{
layerId = "1F0B2016-46FD-49D8-B97E-96273C297819";
paths = (
{
closed = 1;
nodes = (
"159 1 OFFCURVE",
"213 28 OFFCURVE",
"290 83 CURVE SMOOTH",
"367 138 OFFCURVE",
"455 211 OFFCURVE",
"554 302 CURVE",
"606 259 OFFCURVE",
"651 219 OFFCURVE",
"690 184 CURVE SMOOTH",
"729 148 OFFCURVE",
"762 117 OFFCURVE",
"790 92 CURVE SMOOTH",
"846 40 OFFCURVE",
"884 11 OFFCURVE",
"913 11 CURVE SMOOTH",
"953 11 OFFCURVE",
"991 36 OFFCURVE",
"991 83 CURVE SMOOTH",
"991 110 OFFCURVE",
"966 150 OFFCURVE",
"915 204 CURVE SMOOTH",
"864 258 OFFCURVE",
"786 331 OFFCURVE",
"681 424 CURVE",
"819 562 OFFCURVE",
"911 666 OFFCURVE",
"956 735 CURVE SMOOTH",
"965 748 OFFCURVE",
"969 761 OFFCURVE",
"969 776 CURVE",
"966 821 OFFCURVE",
"934 857 OFFCURVE",
"891 857 CURVE",
"868 855 OFFCURVE",
"852 848 OFFCURVE",
"843 836 CURVE",
"809 796 LINE SMOOTH",
"738 708 OFFCURVE",
"655 618 OFFCURVE",
"559 525 CURVE",
"460 604 OFFCURVE",
"372 668 OFFCURVE",
"293 719 CURVE SMOOTH",
"214 770 OFFCURVE",
"160 795 OFFCURVE",
"132 795 CURVE SMOOTH",
"89 795 OFFCURVE",
"50 759 OFFCURVE",
"50 714 CURVE SMOOTH",
"50 688 OFFCURVE",
"67 665 OFFCURVE",
"100 646 CURVE SMOOTH",
"133 627 OFFCURVE",
"242 546 OFFCURVE",
"427 404 CURVE",
"314 305 OFFCURVE",
"213 225 OFFCURVE",
"124 166 CURVE SMOOTH",
"64 125 OFFCURVE",
"56 115 OFFCURVE",
"56 80 CURVE SMOOTH",
"56 36 OFFCURVE",
"91 1 OFFCURVE",
"130 1 CURVE SMOOTH"
);
}
);
width = 1091;
}
);
note = uni1BEC;
unicode = 1BEC;
},
{
glyphname = uni1BED;
lastChange = "2016-11-10 14:10:43 +0000";
layers = (
{
layerId = "1F0B2016-46FD-49D8-B97E-96273C297819";
paths = (
{
closed = 1;
nodes = (
"-354 1130 OFFCURVE",
"-336 1137 OFFCURVE",
"-320 1152 CURVE SMOOTH",
"-250 1221 OFFCURVE",
"-159 1293 OFFCURVE",
"-47 1369 CURVE SMOOTH",
"-20 1388 OFFCURVE",
"0 1420 OFFCURVE",
"0 1451 CURVE SMOOTH",
"0 1479 OFFCURVE",
"-22 1515 OFFCURVE",
"-66 1560 CURVE SMOOTH",
"-155 1649 OFFCURVE",
"-323 1763 OFFCURVE",
"-375 1763 CURVE SMOOTH",
"-418 1763 OFFCURVE",
"-451 1734 OFFCURVE",
"-451 1685 CURVE SMOOTH",
"-451 1658 OFFCURVE",
"-434 1635 OFFCURVE",
"-401 1615 CURVE SMOOTH",
"-317 1564 OFFCURVE",
"-234 1516 OFFCURVE",
"-177 1451 CURVE",
"-254 1410 OFFCURVE",
"-356 1329 OFFCURVE",
"-401 1281 CURVE SMOOTH",
"-418 1263 LINE SMOOTH",
"-440 1241 OFFCURVE",
"-451 1223 OFFCURVE",
"-451 1208 CURVE SMOOTH",
"-451 1159 OFFCURVE",
"-418 1130 OFFCURVE",
"-375 1130 CURVE SMOOTH"
);
},
{
closed = 1;
nodes = (
"-937 1401 OFFCURVE",
"-908 1403 OFFCURVE",
"-870 1407 CURVE SMOOTH",
"-833 1410 OFFCURVE",
"-791 1412 OFFCURVE",
"-745 1412 CURVE SMOOTH",
"-708 1412 OFFCURVE",
"-668 1410 OFFCURVE",
"-626 1407 CURVE SMOOTH",
"-535 1401 LINE",
"-479 1401 OFFCURVE",
"-451 1423 OFFCURVE",
"-451 1467 CURVE SMOOTH",
"-451 1482 OFFCURVE",
"-454 1493 OFFCURVE",
"-460 1502 CURVE",
"-473 1519 OFFCURVE",
"-513 1541 OFFCURVE",
"-568 1549 CURVE SMOOTH",
"-623 1556 OFFCURVE",
"-681 1559 OFFCURVE",
"-745 1559 CURVE SMOOTH",
"-868 1559 OFFCURVE",
"-947 1550 OFFCURVE",
"-989 1531 CURVE SMOOTH",
"-1031 1511 OFFCURVE",
"-1041 1496 OFFCURVE",
"-1041 1467 CURVE SMOOTH",
"-1041 1423 OFFCURVE",
"-1013 1401 OFFCURVE",
"-957 1401 CURVE SMOOTH"
);
}
);
width = 0;
}
);
note = uni1BED;
unicode = 1BED;
},
{
glyphname = uni1BEE;
lastChange = "2016-11-10 14:10:43 +0000";
layers = (
{
layerId = "1F0B2016-46FD-49D8-B97E-96273C297819";
paths = (
{
closed = 1;
nodes = (
"138 -391 OFFCURVE",
"190 -362 OFFCURVE",
"267 -305 CURVE SMOOTH",
"421 -191 OFFCURVE",
"552 -49 OFFCURVE",
"552 3 CURVE SMOOTH",
"552 30 OFFCURVE",
"523 75 OFFCURVE",
"465 137 CURVE SMOOTH",
"349 261 OFFCURVE",
"166 398 OFFCURVE",
"113 398 CURVE SMOOTH",
"66 398 OFFCURVE",
"30 367 OFFCURVE",
"30 315 CURVE SMOOTH",
"30 282 OFFCURVE",
"43 257 OFFCURVE",
"70 239 CURVE SMOOTH",
"193 160 OFFCURVE",
"299 68 OFFCURVE",
"355 0 CURVE",
"290 -75 OFFCURVE",
"195 -153 OFFCURVE",
"70 -232 CURVE SMOOTH",
"43 -250 OFFCURVE",
"30 -275 OFFCURVE",
"30 -308 CURVE SMOOTH",
"30 -360 OFFCURVE",
"66 -391 OFFCURVE",
"113 -391 CURVE SMOOTH"
);
}
);
width = 0;
}
);
note = uni1BEE;
unicode = 1BEE;
},
{
glyphname = uni1BEF;
lastChange = "2016-11-10 14:10:43 +0000";
layers = (
{
layerId = "1F0B2016-46FD-49D8-B97E-96273C297819";
paths = (
{
closed = 1;
nodes = (
"-749 1130 OFFCURVE",
"-728 1135 OFFCURVE",
"-713 1144 CURVE",
"-692 1159 OFFCURVE",
"-649 1185 OFFCURVE",
"-584 1222 CURVE SMOOTH",
"-455 1297 OFFCURVE",
"-339 1343 OFFCURVE",
"-263 1362 CURVE SMOOTH",
"-226 1371 OFFCURVE",
"-207 1397 OFFCURVE",
"-207 1440 CURVE SMOOTH",
"-207 1483 OFFCURVE",
"-241 1507 OFFCURVE",
"-282 1507 CURVE SMOOTH",
"-313 1507 OFFCURVE",
"-363 1493 OFFCURVE",
"-434 1465 CURVE SMOOTH",
"-575 1409 OFFCURVE",
"-733 1329 OFFCURVE",
"-800 1278 CURVE SMOOTH",
"-833 1252 OFFCURVE",
"-850 1228 OFFCURVE",
"-850 1205 CURVE SMOOTH",
"-850 1161 OFFCURVE",
"-820 1130 OFFCURVE",
"-777 1130 CURVE SMOOTH"
);
}
);
width = 0;
}
);
note = uni1BEF;
unicode = 1BEF;
},
{
glyphname = uni1BF0;
lastChange = "2016-11-10 14:10:43 +0000";
layers = (
{
layerId = "1F0B2016-46FD-49D8-B97E-96273C297819";
paths = (
{
closed = 1;
nodes = (
"-126 1130 OFFCURVE",
"-97 1132 OFFCURVE",
"-59 1136 CURVE SMOOTH",
"-22 1139 OFFCURVE",
"20 1141 OFFCURVE",
"66 1141 CURVE SMOOTH",
"103 1141 OFFCURVE",
"143 1139 OFFCURVE",
"185 1136 CURVE SMOOTH",
"276 1130 LINE",
"332 1130 OFFCURVE",
"360 1152 OFFCURVE",
"360 1196 CURVE SMOOTH",
"360 1211 OFFCURVE",
"357 1222 OFFCURVE",
"351 1231 CURVE",
"338 1248 OFFCURVE",
"298 1270 OFFCURVE",
"243 1278 CURVE SMOOTH",
"188 1285 OFFCURVE",
"130 1288 OFFCURVE",
"66 1288 CURVE SMOOTH",
"-57 1288 OFFCURVE",
"-136 1279 OFFCURVE",
"-178 1260 CURVE SMOOTH",
"-220 1240 OFFCURVE",
"-230 1225 OFFCURVE",
"-230 1196 CURVE SMOOTH",
"-230 1152 OFFCURVE",
"-202 1130 OFFCURVE",
"-146 1130 CURVE SMOOTH"
);
}
);
width = 0;
}
);
note = uni1BF0;
unicode = 1BF0;
},
{
glyphname = uni1BF1;
lastChange = "2016-11-10 14:10:43 +0000";
layers = (
{
layerId = "1F0B2016-46FD-49D8-B97E-96273C297819";
paths = (
{
closed = 1;
nodes = (
"-126 1415 OFFCURVE",
"-100 1417 OFFCURVE",
"-69 1421 CURVE SMOOTH",
"-38 1424 OFFCURVE",
"0 1426 OFFCURVE",
"46 1426 CURVE SMOOTH",
"85 1426 OFFCURVE",
"121 1424 OFFCURVE",
"155 1421 CURVE SMOOTH",
"189 1417 OFFCURVE",
"216 1415 OFFCURVE",
"236 1415 CURVE SMOOTH",
"292 1415 OFFCURVE",
"320 1437 OFFCURVE",
"320 1481 CURVE SMOOTH",
"320 1505 OFFCURVE",
"308 1524 OFFCURVE",
"283 1538 CURVE SMOOTH",
"234 1565 OFFCURVE",
"153 1573 OFFCURVE",
"46 1573 CURVE SMOOTH",
"-15 1573 OFFCURVE",
"-64 1570 OFFCURVE",
"-101 1565 CURVE SMOOTH",
"-177 1554 OFFCURVE",
"-230 1529 OFFCURVE",
"-230 1481 CURVE SMOOTH",
"-230 1437 OFFCURVE",
"-202 1415 OFFCURVE",
"-146 1415 CURVE SMOOTH"
);
},
{
closed = 1;
nodes = (
"-126 1130 OFFCURVE",
"-100 1132 OFFCURVE",
"-69 1136 CURVE SMOOTH",
"-38 1139 OFFCURVE",
"0 1141 OFFCURVE",
"46 1141 CURVE SMOOTH",
"85 1141 OFFCURVE",
"121 1139 OFFCURVE",
"155 1136 CURVE SMOOTH",
"189 1132 OFFCURVE",
"216 1130 OFFCURVE",
"236 1130 CURVE SMOOTH",
"292 1130 OFFCURVE",
"320 1152 OFFCURVE",
"320 1196 CURVE SMOOTH",
"320 1220 OFFCURVE",
"308 1239 OFFCURVE",
"283 1253 CURVE SMOOTH",
"234 1280 OFFCURVE",
"153 1288 OFFCURVE",
"46 1288 CURVE SMOOTH",
"-15 1288 OFFCURVE",
"-64 1285 OFFCURVE",
"-101 1280 CURVE SMOOTH",
"-177 1269 OFFCURVE",
"-230 1244 OFFCURVE",
"-230 1196 CURVE SMOOTH",
"-230 1152 OFFCURVE",
"-202 1130 OFFCURVE",
"-146 1130 CURVE SMOOTH"
);
}
);
width = 0;
}
);
note = uni1BF1;
unicode = 1BF1;
},
{
glyphname = uni1BF2;
lastChange = "2016-11-10 14:10:43 +0000";
layers = (
{
layerId = "1F0B2016-46FD-49D8-B97E-96273C297819";
paths = (
{
closed = 1;
nodes = (
"990 0 OFFCURVE",
"1025 41 OFFCURVE",
"1025 90 CURVE SMOOTH",
"1025 117 OFFCURVE",
"995 160 OFFCURVE",
"936 220 CURVE SMOOTH",
"817 339 OFFCURVE",
"489 589 OFFCURVE",
"300 701 CURVE SMOOTH",
"205 756 OFFCURVE",
"141 784 OFFCURVE",
"107 784 CURVE SMOOTH",
"63 784 OFFCURVE",
"30 745 OFFCURVE",
"30 704 CURVE SMOOTH",
"30 663 OFFCURVE",
"44 650 OFFCURVE",
"96 622 CURVE SMOOTH",
"373 469 OFFCURVE",
"706 223 OFFCURVE",
"899 16 CURVE",
"911 5 OFFCURVE",
"926 0 OFFCURVE",
"943 0 CURVE SMOOTH"
);
}
);
width = 1125;
}
);
note = uni1BF2;
unicode = 1BF2;
},
{
glyphname = uni1BF3;
lastChange = "2016-11-10 14:10:43 +0000";
layers = (
{
layerId = "1F0B2016-46FD-49D8-B97E-96273C297819";
paths = (
{
closed = 1;
nodes = (
"152 331 LINE",
"229 341 OFFCURVE",
"318 346 OFFCURVE",
"421 346 CURVE SMOOTH",
"516 346 OFFCURVE",
"605 341 OFFCURVE",
"687 331 CURVE",
"726 328 LINE",
"774 328 OFFCURVE",
"810 369 OFFCURVE",
"810 417 CURVE SMOOTH",
"810 442 OFFCURVE",
"801 460 OFFCURVE",
"783 473 CURVE SMOOTH",
"765 486 OFFCURVE",
"723 496 OFFCURVE",
"658 504 CURVE SMOOTH",
"592 512 OFFCURVE",
"513 516 OFFCURVE",
"421 516 CURVE SMOOTH",
"274 516 OFFCURVE",
"106 502 OFFCURVE",
"63 475 CURVE SMOOTH",
"41 462 OFFCURVE",
"30 442 OFFCURVE",
"30 417 CURVE SMOOTH",
"30 369 OFFCURVE",
"66 328 OFFCURVE",
"114 328 CURVE"
);
}
);
width = 910;
}
);
note = uni1BF3;
unicode = 1BF3;
},
{
glyphname = uni1BFC;
lastChange = "2016-11-10 14:10:43 +0000";
layers = (
{
layerId = "1F0B2016-46FD-49D8-B97E-96273C297819";
paths = (
{
closed = 1;
nodes = (
"597 -50 OFFCURVE",
"634 -15 OFFCURVE",
"634 25 CURVE SMOOTH",
"634 69 OFFCURVE",
"611 82 OFFCURVE",
"571 97 CURVE",
"450 136 OFFCURVE",
"390 178 OFFCURVE",
"390 224 CURVE SMOOTH",
"390 281 OFFCURVE",
"435 316 OFFCURVE",
"507 355 CURVE SMOOTH",
"638 427 LINE",
"773 296 OFFCURVE",
"920 231 OFFCURVE",
"1080 231 CURVE SMOOTH",
"1247 231 OFFCURVE",
"1381 286 OFFCURVE",
"1536 437 CURVE",
"1685 355 LINE SMOOTH",
"1757 316 OFFCURVE",
"1802 281 OFFCURVE",
"1802 224 CURVE SMOOTH",
"1802 178 OFFCURVE",
"1742 136 OFFCURVE",
"1621 97 CURVE",
"1581 82 OFFCURVE",
"1558 69 OFFCURVE",
"1558 25 CURVE SMOOTH",
"1558 -15 OFFCURVE",
"1595 -50 OFFCURVE",
"1650 -50 CURVE SMOOTH",
"1703 -50 OFFCURVE",
"1756 -36 OFFCURVE",
"1809 -9 CURVE SMOOTH",
"1916 45 OFFCURVE",
"1972 131 OFFCURVE",
"1972 239 CURVE SMOOTH",
"1972 279 OFFCURVE",
"1963 315 OFFCURVE",
"1944 348 CURVE SMOOTH",
"1906 412 OFFCURVE",
"1810 481 OFFCURVE",
"1722 525 CURVE",
"1903 598 OFFCURVE",
"1972 675 OFFCURVE",
"1972 770 CURVE SMOOTH",
"1972 867 OFFCURVE",
"1907 939 OFFCURVE",
"1711 1019 CURVE",
"1728 1029 LINE SMOOTH",
"1904 1125 OFFCURVE",
"1972 1203 OFFCURVE",
"1972 1312 CURVE SMOOTH",
"1972 1365 OFFCURVE",
"1959 1412 OFFCURVE",
"1932 1455 CURVE SMOOTH",
"1878 1539 OFFCURVE",
"1755 1600 OFFCURVE",
"1650 1600 CURVE SMOOTH",
"1595 1600 OFFCURVE",
"1558 1565 OFFCURVE",
"1558 1525 CURVE SMOOTH",
"1558 1502 OFFCURVE",
"1564 1486 OFFCURVE",
"1576 1477 CURVE",
"1587 1468 OFFCURVE",
"1620 1453 OFFCURVE",
"1674 1434 CURVE SMOOTH",
"1751 1406 OFFCURVE",
"1802 1367 OFFCURVE",
"1802 1327 CURVE SMOOTH",
"1802 1270 OFFCURVE",
"1757 1235 OFFCURVE",
"1685 1196 CURVE SMOOTH",
"1538 1115 LINE",
"1480 1170 OFFCURVE",
"1429 1211 OFFCURVE",
"1385 1238 CURVE SMOOTH",
"1297 1291 OFFCURVE",
"1197 1323 OFFCURVE",
"1080 1323 CURVE SMOOTH",
"921 1323 OFFCURVE",
"773 1257 OFFCURVE",
"636 1124 CURVE",
"507 1196 LINE SMOOTH",
"435 1235 OFFCURVE",
"390 1270 OFFCURVE",
"390 1327 CURVE SMOOTH",
"390 1368 OFFCURVE",
"441 1406 OFFCURVE",
"518 1434 CURVE SMOOTH",
"572 1453 OFFCURVE",
"605 1468 OFFCURVE",
"617 1478 CURVE SMOOTH",
"628 1487 OFFCURVE",
"634 1503 OFFCURVE",
"634 1525 CURVE SMOOTH",
"634 1565 OFFCURVE",
"597 1600 OFFCURVE",
"542 1600 CURVE SMOOTH",
"489 1600 OFFCURVE",
"436 1586 OFFCURVE",
"382 1559 CURVE SMOOTH",
"274 1504 OFFCURVE",
"220 1419 OFFCURVE",
"220 1312 CURVE SMOOTH",
"220 1201 OFFCURVE",
"285 1128 OFFCURVE",
"464 1029 CURVE SMOOTH",
"490 1014 LINE",
"413 982 OFFCURVE",
"358 955 OFFCURVE",
"325 932 CURVE SMOOTH",
"258 886 OFFCURVE",
"220 830 OFFCURVE",
"220 761 CURVE SMOOTH",
"220 669 OFFCURVE",
"291 591 OFFCURVE",
"460 520 CURVE",
"283 420 OFFCURVE",
"220 350 OFFCURVE",
"220 239 CURVE SMOOTH",
"220 186 OFFCURVE",
"234 138 OFFCURVE",
"261 96 CURVE SMOOTH",
"316 11 OFFCURVE",
"437 -50 OFFCURVE",
"542 -50 CURVE SMOOTH"
);
},
{
closed = 1;
nodes = (
"467 660 OFFCURVE",
"390 711 OFFCURVE",
"390 761 CURVE SMOOTH",
"390 787 OFFCURVE",
"414 814 OFFCURVE",
"461 843 CURVE SMOOTH",
"508 872 OFFCURVE",
"572 898 OFFCURVE",
"655 923 CURVE",
"923 775 LINE",
"622 609 LINE"
);
},
{
closed = 1;
nodes = (
"992 391 OFFCURVE",
"903 422 OFFCURVE",
"782 507 CURVE",
"1096 680 LINE",
"1395 515 LINE",
"1263 422 OFFCURVE",
"1171 391 OFFCURVE",
"1080 391 CURVE SMOOTH"
);
},
{
closed = 1;
nodes = (
"780 1045 LINE",
"908 1136 OFFCURVE",
"991 1163 OFFCURVE",
"1080 1163 CURVE SMOOTH",
"1176 1163 OFFCURVE",
"1265 1132 OFFCURVE",
"1397 1037 CURVE",
"1096 871 LINE"
);
},
{
closed = 1;
nodes = (
"1269 775 LINE",
"1547 929 LINE",
"1717 874 OFFCURVE",
"1802 821 OFFCURVE",
"1802 770 CURVE SMOOTH",
"1802 719 OFFCURVE",
"1721 668 OFFCURVE",
"1559 615 CURVE"
);
}
);
width = 2192;
}
);
note = uni1BFC;
unicode = 1BFC;
},
{
glyphname = uni1BFD;
lastChange = "2016-11-10 14:10:43 +0000";
layers = (
{
layerId = "1F0B2016-46FD-49D8-B97E-96273C297819";
paths = (
{
closed = 1;
nodes = (
"1327 -8 OFFCURVE",
"1441 182 OFFCURVE",
"1441 378 CURVE SMOOTH",
"1441 411 OFFCURVE",
"1436 444 OFFCURVE",
"1426 478 CURVE",
"1458 470 OFFCURVE",
"1492 466 OFFCURVE",
"1528 466 CURVE SMOOTH",
"1729 466 OFFCURVE",
"1914 575 OFFCURVE",
"2038 772 CURVE",
"1914 964 OFFCURVE",
"1723 1079 OFFCURVE",
"1528 1079 CURVE SMOOTH",
"1493 1079 OFFCURVE",
"1458 1074 OFFCURVE",
"1425 1063 CURVE",
"1436 1096 OFFCURVE",
"1441 1131 OFFCURVE",
"1441 1166 CURVE SMOOTH",
"1441 1362 OFFCURVE",
"1326 1553 OFFCURVE",
"1134 1676 CURVE",
"937 1552 OFFCURVE",
"828 1366 OFFCURVE",
"828 1166 CURVE SMOOTH",
"828 1130 OFFCURVE",
"832 1096 OFFCURVE",
"840 1064 CURVE",
"806 1074 OFFCURVE",
"773 1079 OFFCURVE",
"740 1079 CURVE SMOOTH",
"544 1079 OFFCURVE",
"354 965 OFFCURVE",
"230 772 CURVE",
"354 575 OFFCURVE",
"540 466 OFFCURVE",
"740 466 CURVE SMOOTH",
"773 466 OFFCURVE",
"806 470 OFFCURVE",
"839 477 CURVE",
"832 444 OFFCURVE",
"828 411 OFFCURVE",
"828 378 CURVE SMOOTH",
"828 177 OFFCURVE",
"937 -8 OFFCURVE",
"1134 -132 CURVE"
);
},
{
closed = 1;
nodes = (
"616 626 OFFCURVE",
"490 689 OFFCURVE",
"430 772 CURVE",
"491 855 OFFCURVE",
"620 919 OFFCURVE",
"737 919 CURVE SMOOTH",
"816 919 OFFCURVE",
"891 891 OFFCURVE",
"964 836 CURVE",
"979 819 OFFCURVE",
"1001 799 OFFCURVE",
"1029 774 CURVE",
"940 685 OFFCURVE",
"824 626 OFFCURVE",
"737 626 CURVE SMOOTH"
);
},
{
closed = 1;
nodes = (
"1051 128 OFFCURVE",
"988 254 OFFCURVE",
"988 375 CURVE SMOOTH",
"988 463 OFFCURVE",
"1047 578 OFFCURVE",
"1136 667 CURVE",
"1161 639 OFFCURVE",
"1181 617 OFFCURVE",
"1198 602 CURVE",
"1253 529 OFFCURVE",
"1281 454 OFFCURVE",
"1281 375 CURVE SMOOTH",
"1281 258 OFFCURVE",
"1215 129 OFFCURVE",
"1134 68 CURVE"
);
},
{
closed = 1;
nodes = (
"1054 954 OFFCURVE",
"988 1076 OFFCURVE",
"988 1169 CURVE SMOOTH",
"988 1290 OFFCURVE",
"1051 1416 OFFCURVE",
"1134 1476 CURVE",
"1217 1415 OFFCURVE",
"1281 1286 OFFCURVE",
"1281 1169 CURVE SMOOTH",
"1281 1077 OFFCURVE",
"1250 1002 OFFCURVE",
"1173 910 CURVE",
"1138 875 LINE"
);
},
{
closed = 1;
nodes = (
"1438 626 OFFCURVE",
"1317 692 OFFCURVE",
"1237 776 CURVE",
"1272 811 LINE",
"1364 888 OFFCURVE",
"1439 919 OFFCURVE",
"1531 919 CURVE SMOOTH",
"1648 919 OFFCURVE",
"1777 853 OFFCURVE",
"1838 772 CURVE",
"1778 689 OFFCURVE",
"1652 626 OFFCURVE",
"1531 626 CURVE SMOOTH"
);
}
);
width = 2268;
}
);
note = uni1BFD;
unicode = 1BFD;
},
{
glyphname = uni1BFE;
lastChange = "2016-11-10 14:10:43 +0000";
layers = (
{
layerId = "1F0B2016-46FD-49D8-B97E-96273C297819";
paths = (
{
closed = 1;
nodes = (
"1248 -30 OFFCURVE",
"1333 25 OFFCURVE",
"1395 105 CURVE SMOOTH",
"1457 185 OFFCURVE",
"1493 292 OFFCURVE",
"1493 400 CURVE SMOOTH",
"1493 507 OFFCURVE",
"1468 615 OFFCURVE",
"1418 725 CURVE SMOOTH",
"1333 914 LINE SMOOTH",
"1294 1001 OFFCURVE",
"1274 1086 OFFCURVE",
"1274 1167 CURVE SMOOTH",
"1274 1251 OFFCURVE",
"1296 1309 OFFCURVE",
"1325 1353 CURVE SMOOTH",
"1354 1396 OFFCURVE",
"1390 1424 OFFCURVE",
"1419 1448 CURVE SMOOTH",
"1448 1471 OFFCURVE",
"1470 1490 OFFCURVE",
"1470 1514 CURVE SMOOTH",
"1470 1566 OFFCURVE",
"1435 1600 OFFCURVE",
"1388 1600 CURVE SMOOTH",
"1325 1600 OFFCURVE",
"1241 1545 OFFCURVE",
"1179 1465 CURVE SMOOTH",
"1117 1385 OFFCURVE",
"1080 1278 OFFCURVE",
"1080 1170 CURVE SMOOTH",
"1080 1063 OFFCURVE",
"1105 955 OFFCURVE",
"1155 845 CURVE SMOOTH",
"1240 656 LINE SMOOTH",
"1279 569 OFFCURVE",
"1299 484 OFFCURVE",
"1299 403 CURVE SMOOTH",
"1299 319 OFFCURVE",
"1277 261 OFFCURVE",
"1248 218 CURVE SMOOTH",
"1219 174 OFFCURVE",
"1183 146 OFFCURVE",
"1154 123 CURVE SMOOTH",
"1125 99 OFFCURVE",
"1103 80 OFFCURVE",
"1103 56 CURVE SMOOTH",
"1103 4 OFFCURVE",
"1138 -30 OFFCURVE",
"1185 -30 CURVE SMOOTH"
);
},
{
closed = 1;
nodes = (
"418 -30 OFFCURVE",
"503 25 OFFCURVE",
"565 105 CURVE SMOOTH",
"627 185 OFFCURVE",
"663 292 OFFCURVE",
"663 400 CURVE SMOOTH",
"663 507 OFFCURVE",
"638 615 OFFCURVE",
"588 725 CURVE SMOOTH",
"503 914 LINE SMOOTH",
"464 1001 OFFCURVE",
"444 1086 OFFCURVE",
"444 1167 CURVE SMOOTH",
"444 1251 OFFCURVE",
"466 1309 OFFCURVE",
"495 1353 CURVE SMOOTH",
"524 1396 OFFCURVE",
"560 1424 OFFCURVE",
"589 1448 CURVE SMOOTH",
"618 1471 OFFCURVE",
"640 1490 OFFCURVE",
"640 1514 CURVE SMOOTH",
"640 1566 OFFCURVE",
"605 1600 OFFCURVE",
"558 1600 CURVE SMOOTH",
"495 1600 OFFCURVE",
"411 1545 OFFCURVE",
"349 1465 CURVE SMOOTH",
"287 1385 OFFCURVE",
"250 1278 OFFCURVE",
"250 1170 CURVE SMOOTH",
"250 1063 OFFCURVE",
"275 955 OFFCURVE",
"325 845 CURVE SMOOTH",
"410 656 LINE SMOOTH",
"449 569 OFFCURVE",
"469 484 OFFCURVE",
"469 403 CURVE SMOOTH",
"469 319 OFFCURVE",
"447 261 OFFCURVE",
"418 218 CURVE SMOOTH",
"389 174 OFFCURVE",
"353 146 OFFCURVE",
"324 123 CURVE SMOOTH",
"295 99 OFFCURVE",
"273 80 OFFCURVE",
"273 56 CURVE SMOOTH",
"273 4 OFFCURVE",
"308 -30 OFFCURVE",
"355 -30 CURVE SMOOTH"
);
},
{
closed = 1;
nodes = (
"848 -30 OFFCURVE",
"933 25 OFFCURVE",
"995 105 CURVE SMOOTH",
"1057 185 OFFCURVE",
"1093 292 OFFCURVE",
"1093 400 CURVE SMOOTH",
"1093 507 OFFCURVE",
"1068 615 OFFCURVE",
"1018 725 CURVE SMOOTH",
"933 914 LINE SMOOTH",
"894 1001 OFFCURVE",
"874 1086 OFFCURVE",
"874 1167 CURVE SMOOTH",
"874 1251 OFFCURVE",
"896 1309 OFFCURVE",
"925 1353 CURVE SMOOTH",
"954 1396 OFFCURVE",
"990 1424 OFFCURVE",
"1019 1448 CURVE SMOOTH",
"1048 1471 OFFCURVE",
"1070 1490 OFFCURVE",
"1070 1514 CURVE SMOOTH",
"1070 1566 OFFCURVE",
"1035 1600 OFFCURVE",
"988 1600 CURVE SMOOTH",
"925 1600 OFFCURVE",
"841 1545 OFFCURVE",
"779 1465 CURVE SMOOTH",
"717 1385 OFFCURVE",
"680 1278 OFFCURVE",
"680 1170 CURVE SMOOTH",
"680 1063 OFFCURVE",
"705 955 OFFCURVE",
"755 845 CURVE SMOOTH",
"840 656 LINE SMOOTH",
"879 569 OFFCURVE",
"899 484 OFFCURVE",
"899 403 CURVE SMOOTH",
"899 319 OFFCURVE",
"877 261 OFFCURVE",
"848 218 CURVE SMOOTH",
"819 174 OFFCURVE",
"783 146 OFFCURVE",
"754 123 CURVE SMOOTH",
"725 99 OFFCURVE",
"703 80 OFFCURVE",
"703 56 CURVE SMOOTH",
"703 4 OFFCURVE",
"738 -30 OFFCURVE",
"785 -30 CURVE SMOOTH"
);
}
);
width = 1743;
}
);
note = uni1BFE;
unicode = 1BFE;
},
{
glyphname = uni1BFF;
lastChange = "2016-11-10 14:10:43 +0000";
layers = (
{
layerId = "1F0B2016-46FD-49D8-B97E-96273C297819";
paths = (
{
closed = 1;
nodes = (
"519 -30 OFFCURVE",
"730 54 OFFCURVE",
"868 201 CURVE SMOOTH",
"1006 348 OFFCURVE",
"1079 551 OFFCURVE",
"1079 783 CURVE SMOOTH",
"1079 1022 OFFCURVE",
"1010 1216 OFFCURVE",
"875 1362 CURVE SMOOTH",
"739 1508 OFFCURVE",
"530 1600 OFFCURVE",
"358 1600 CURVE SMOOTH",
"305 1600 OFFCURVE",
"270 1560 OFFCURVE",
"270 1509 CURVE SMOOTH",
"270 1457 OFFCURVE",
"314 1431 OFFCURVE",
"358 1424 CURVE SMOOTH",
"492 1403 OFFCURVE",
"596 1367 OFFCURVE",
"669 1314 CURVE SMOOTH",
"816 1209 OFFCURVE",
"899 1022 OFFCURVE",
"899 783 CURVE SMOOTH",
"899 434 OFFCURVE",
"730 216 OFFCURVE",
"422 159 CURVE SMOOTH",
"346 144 LINE",
"295 130 OFFCURVE",
"270 103 OFFCURVE",
"270 64 CURVE SMOOTH",
"270 12 OFFCURVE",
"305 -30 OFFCURVE",
"358 -30 CURVE SMOOTH"
);
}
);
width = 1409;
}
);
note = uni1BFF;
unicode = 1BFF;
},
